<?xml version="1.0" standalone="no"?>
 <!DOCTYPE svg PUBLIC "-//W3C//DTD SVG 1.1//EN" 
 "http://www.w3.org/Graphics/SVG/1.1/DTD/svg11.dtd"> 
<svg xmlns="http://www.w3.org/2000/svg" version="1.1" 
    width="21.0007cm" height="29.7002cm" viewBox="0 0 82680 116930 ">
<title>SVG Picture created as Power distribution board-Edge_Cuts.svg date 2014/12/06 16:06:05 </title>
  <desc>Picture generated by PCBNEW </desc>
<g style="fill:#000000; fill-opacity:1;stroke:#000000; stroke-opacity:1;
stroke-linecap:round; stroke-linejoin:round; "
 transform="translate(0 0) scale(1 1)">
</g>
<g style="fill:#000000; fill-opacity:0.0; 
stroke:#000000; stroke-width:59.0551; stroke-opacity:1; 
stroke-linecap:round; stroke-linejoin:round;">
<path d="M7500 43430
L17500 43430
" />
<path d="M6500 6930
L6500 42930
" />
<path d="M17500 6430
L7000 6430
" />
<path d="M18000 6930
L18000 8430
" />
<path d="M18000 42930
L18000 6930
" />
<path d="M7000 6430 A500 500 0.0 0 0 6500 6930 " />
<path d="M18000 6930 A500 500 0.0 0 0 17500 6430 " />
<path d="M17500 43430 A500 500 0.0 0 0 18000 42930 " />
<path d="M6500 42930 A500 500 0.0 0 0 7000 43430 " />
</g> 
</svg>
