<?xml version="1.0" standalone="no"?>
 <!DOCTYPE svg PUBLIC "-//W3C//DTD SVG 1.1//EN" 
 "http://www.w3.org/Graphics/SVG/1.1/DTD/svg11.dtd"> 
<svg xmlns="http://www.w3.org/2000/svg" version="1.1" 
    width="4.2545cm" height="9.86536cm" viewBox="0 0 16750 38840 ">
<title>SVG Picture created as Power distribution board-F_SilkS.svg date 2014/12/06 18:48:42 </title>
  <desc>Picture generated by PCBNEW </desc>
<g style="fill:#000000; fill-opacity:1;stroke:#000000; stroke-opacity:1;
stroke-linecap:round; stroke-linejoin:round; "
 transform="translate(0 0) scale(1 1)">
</g>
<g style="fill:#000000; fill-opacity:0.0; 
stroke:#000000; stroke-width:39.3701; stroke-opacity:1; 
stroke-linecap:round; stroke-linejoin:round;">
<path d="M4637 37522
L4665 37540
L4675 37559
L4684 37597
L4684 37653
L4675 37690
L4665 37709
L4646 37728
L4571 37728
L4571 37334
L4637 37334
L4656 37353
L4665 37372
L4675 37409
L4675 37447
L4665 37484
L4656 37503
L4637 37522
L4571 37522
" />
<path d="M4853 37728
L4853 37522
L4843 37484
L4824 37465
L4787 37465
L4768 37484
" />
<path d="M4853 37709
L4834 37728
L4787 37728
L4768 37709
L4759 37672
L4759 37634
L4768 37597
L4787 37578
L4834 37578
L4853 37559
" />
<path d="M4918 37465
L4993 37465
" />
<path d="M4946 37334
L4946 37672
L4956 37709
L4974 37728
L4993 37728
" />
<path d="M5031 37465
L5106 37465
" />
<path d="M5059 37334
L5059 37672
L5068 37709
L5087 37728
L5106 37728
" />
<path d="M5246 37709
L5228 37728
L5190 37728
L5171 37709
L5162 37672
L5162 37522
L5171 37484
L5190 37465
L5228 37465
L5246 37484
L5256 37522
L5256 37559
L5162 37597
" />
<path d="M5340 37728
L5340 37465
" />
<path d="M5340 37540
L5349 37503
L5359 37484
L5378 37465
L5396 37465
" />
<path d="M5443 37465
L5490 37728
" />
<path d="M5537 37465
L5490 37728
L5471 37821
L5462 37840
L5443 37859
" />
</g>
<g style="fill:#000000; fill-opacity:0.0; 
stroke:#000000; stroke-width:78.7402; stroke-opacity:1; 
stroke-linecap:round; stroke-linejoin:round;">
<circle cx="8435.04" cy="32253.9" r="508.865" /> 
</g>
<g style="fill:#000000; fill-opacity:0.0; 
stroke:#000000; stroke-width:118.11; stroke-opacity:1; 
stroke-linecap:round; stroke-linejoin:round;">
<path d="M8135 32252
L8735 32252
" />
<path d="M8146 25260
L8746 25260
" />
</g>
<g style="fill:#000000; fill-opacity:0.0; 
stroke:#000000; stroke-width:78.7402; stroke-opacity:1; 
stroke-linecap:round; stroke-linejoin:round;">
<circle cx="8446.85" cy="25261.8" r="508.865" /> 
<circle cx="8486.22" cy="11313" r="508.865" /> 
</g>
<g style="fill:#000000; fill-opacity:0.0; 
stroke:#000000; stroke-width:118.11; stroke-opacity:1; 
stroke-linecap:round; stroke-linejoin:round;">
<path d="M8186 11312
L8786 11312
" />
<path d="M8174 18276
L8774 18276
" />
</g>
<g style="fill:#000000; fill-opacity:0.0; 
stroke:#000000; stroke-width:78.7402; stroke-opacity:1; 
stroke-linecap:round; stroke-linejoin:round;">
<circle cx="8474.41" cy="18277.6" r="508.865" /> 
<circle cx="1545.28" cy="18257.9" r="508.865" /> 
</g>
<g style="fill:#000000; fill-opacity:0.0; 
stroke:#000000; stroke-width:118.11; stroke-opacity:1; 
stroke-linecap:round; stroke-linejoin:round;">
<path d="M1245 18256
L1845 18256
" />
<path d="M1257 11292
L1857 11292
" />
</g>
<g style="fill:#000000; fill-opacity:0.0; 
stroke:#000000; stroke-width:78.7402; stroke-opacity:1; 
stroke-linecap:round; stroke-linejoin:round;">
<circle cx="1557.09" cy="11293.3" r="508.865" /> 
<circle cx="1517.72" cy="25242.1" r="508.865" /> 
</g>
<g style="fill:#000000; fill-opacity:0.0; 
stroke:#000000; stroke-width:118.11; stroke-opacity:1; 
stroke-linecap:round; stroke-linejoin:round;">
<path d="M1217 25241
L1817 25241
" />
<path d="M1205 32233
L1805 32233
" />
</g>
<g style="fill:#000000; fill-opacity:0.0; 
stroke:#000000; stroke-width:78.7402; stroke-opacity:1; 
stroke-linecap:round; stroke-linejoin:round;">
<circle cx="1505.91" cy="32234.3" r="508.865" /> 
</g>
<g style="fill:#000000; fill-opacity:0.0; 
stroke:#000000; stroke-width:118.11; stroke-opacity:1; 
stroke-linecap:round; stroke-linejoin:round;">
<path d="M1261 4221
L1860 4221
" />
</g>
<g style="fill:#000000; fill-opacity:0.0; 
stroke:#000000; stroke-width:78.7402; stroke-opacity:1; 
stroke-linecap:round; stroke-linejoin:round;">
<circle cx="1557.09" cy="4222.44" r="505.426" /> 
<circle cx="1505.91" cy="28789.4" r="508.865" /> 
</g>
<g style="fill:#000000; fill-opacity:0.0; 
stroke:#000000; stroke-width:118.11; stroke-opacity:1; 
stroke-linecap:round; stroke-linejoin:round;">
<path d="M1205 28788
L1805 28788
" />
<path d="M1505 29088
L1505 28488
" />
<path d="M1217 21796
L1817 21796
" />
<path d="M1517 22096
L1517 21496
" />
</g>
<g style="fill:#000000; fill-opacity:0.0; 
stroke:#000000; stroke-width:78.7402; stroke-opacity:1; 
stroke-linecap:round; stroke-linejoin:round;">
<circle cx="1517.72" cy="21797.2" r="508.865" /> 
<circle cx="1557.09" cy="7848.42" r="508.865" /> 
</g>
<g style="fill:#000000; fill-opacity:0.0; 
stroke:#000000; stroke-width:118.11; stroke-opacity:1; 
stroke-linecap:round; stroke-linejoin:round;">
<path d="M1257 7847
L1857 7847
" />
<path d="M1557 8147
L1557 7547
" />
<path d="M1245 14812
L1845 14812
" />
<path d="M1545 15112
L1545 14512
" />
</g>
<g style="fill:#000000; fill-opacity:0.0; 
stroke:#000000; stroke-width:78.7402; stroke-opacity:1; 
stroke-linecap:round; stroke-linejoin:round;">
<circle cx="1545.28" cy="14813" r="508.865" /> 
<circle cx="8549.21" cy="4234.25" r="508.865" /> 
</g>
<g style="fill:#000000; fill-opacity:0.0; 
stroke:#000000; stroke-width:118.11; stroke-opacity:1; 
stroke-linecap:round; stroke-linejoin:round;">
<path d="M8249 4233
L8849 4233
" />
<path d="M8549 4533
L8549 3933
" />
</g>
<g style="fill:#000000; fill-opacity:0.0; 
stroke:#000000; stroke-width:78.7402; stroke-opacity:1; 
stroke-linecap:round; stroke-linejoin:round;">
<circle cx="8474.41" cy="14832.7" r="508.865" /> 
</g>
<g style="fill:#000000; fill-opacity:0.0; 
stroke:#000000; stroke-width:118.11; stroke-opacity:1; 
stroke-linecap:round; stroke-linejoin:round;">
<path d="M8174 14831
L8774 14831
" />
<path d="M8474 15131
L8474 14531
" />
<path d="M8186 7867
L8786 7867
" />
<path d="M8486 8167
L8486 7567
" />
</g>
<g style="fill:#000000; fill-opacity:0.0; 
stroke:#000000; stroke-width:78.7402; stroke-opacity:1; 
stroke-linecap:round; stroke-linejoin:round;">
<circle cx="8486.22" cy="7868.11" r="508.865" /> 
<circle cx="8446.85" cy="21816.9" r="508.865" /> 
</g>
<g style="fill:#000000; fill-opacity:0.0; 
stroke:#000000; stroke-width:118.11; stroke-opacity:1; 
stroke-linecap:round; stroke-linejoin:round;">
<path d="M8146 21815
L8746 21815
" />
<path d="M8446 22115
L8446 21516
" />
<path d="M8135 28808
L8735 28808
" />
<path d="M8435 29108
L8435 28508
" />
</g>
<g style="fill:#000000; fill-opacity:0.0; 
stroke:#000000; stroke-width:78.7402; stroke-opacity:1; 
stroke-linecap:round; stroke-linejoin:round;">
<circle cx="8435.04" cy="28809.1" r="508.865" /> 
<circle cx="6521.65" cy="37588.6" r="508.865" /> 
<circle cx="3525.59" cy="37588.6" r="505.426" /> 
</g>
<g style="fill:#000000; fill-opacity:0.0; 
stroke:#000000; stroke-width:118.11; stroke-opacity:1; 
stroke-linecap:round; stroke-linejoin:round;">
<path d="M3229 37587
L3829 37587
" />
<path d="M6221 37587
L6821 37587
" />
<path d="M6521 37887
L6521 37287
" />
</g>
<g style="fill:#000000; fill-opacity:0.0; 
stroke:#000000; stroke-width:100; stroke-opacity:1; 
stroke-linecap:round; stroke-linejoin:round;">
<path d="M3073 2986
L3073 2586
L3302 2986
L3302 2586
" />
<path d="M3702 2986
L3473 2986
" />
<path d="M3587 2986
L3587 2586
L3549 2643
L3511 2681
L3473 2700
" />
<path d="M3949 2586
L3987 2586
L4026 2605
L4045 2624
L4064 2662
L4083 2739
L4083 2834
L4064 2910
L4045 2948
L4026 2967
L3987 2986
L3949 2986
L3911 2967
L3892 2948
L3873 2910
L3854 2834
L3854 2739
L3873 2662
L3892 2624
L3911 2605
L3949 2586
" />
<path d="M6226 27494
L6226 27094
L6378 27094
L6416 27113
L6435 27132
L6454 27170
L6454 27227
L6435 27266
L6416 27285
L6378 27304
L6226 27304
" />
<path d="M6588 27094
L6835 27094
L6702 27246
L6759 27246
L6797 27266
L6816 27285
L6835 27323
L6835 27418
L6816 27456
L6797 27475
L6759 27494
L6645 27494
L6607 27475
L6588 27456
" />
<path d="M6035 2986
L6035 2586
L6188 2586
L6226 2605
L6245 2624
L6264 2662
L6264 2720
L6245 2758
L6226 2777
L6188 2796
L6035 2796
" />
<path d="M6645 2986
L6416 2986
" />
<path d="M6531 2986
L6531 2586
L6493 2643
L6454 2681
L6416 2700
" />
<path d="M6893 2586
L6931 2586
L6969 2605
L6988 2624
L7007 2662
L7026 2739
L7026 2834
L7007 2910
L6988 2948
L6969 2967
L6931 2986
L6893 2986
L6854 2967
L6835 2948
L6816 2910
L6797 2834
L6797 2739
L6816 2662
L6835 2624
L6854 2605
L6893 2586
" />
<path d="M6226 6530
L6226 6130
L6378 6130
L6416 6149
L6435 6168
L6454 6206
L6454 6263
L6435 6301
L6416 6320
L6378 6339
L6226 6339
" />
<path d="M6645 6530
L6721 6530
L6759 6510
L6778 6491
L6816 6434
L6835 6358
L6835 6206
L6816 6168
L6797 6149
L6759 6130
L6683 6130
L6645 6149
L6626 6168
L6607 6206
L6607 6301
L6626 6339
L6645 6358
L6683 6377
L6759 6377
L6797 6358
L6816 6339
L6835 6301
" />
<path d="M6216 10171
L6216 9771
L6445 10171
L6445 9771
" />
<path d="M6654 10171
L6731 10171
L6769 10152
L6788 10133
L6826 10076
L6845 10000
L6845 9847
L6826 9809
L6807 9790
L6769 9771
L6693 9771
L6654 9790
L6635 9809
L6616 9847
L6616 9943
L6635 9981
L6654 10000
L6693 10019
L6769 10019
L6807 10000
L6826 9981
L6845 9943
" />
<path d="M3273 6530
L3273 6130
L3426 6130
L3464 6149
L3483 6168
L3502 6206
L3502 6263
L3483 6301
L3464 6320
L3426 6339
L3273 6339
" />
<path d="M3730 6301
L3692 6282
L3673 6263
L3654 6225
L3654 6206
L3673 6168
L3692 6149
L3730 6130
L3806 6130
L3845 6149
L3864 6168
L3883 6206
L3883 6225
L3864 6263
L3845 6282
L3806 6301
L3730 6301
L3692 6320
L3673 6339
L3654 6377
L3654 6453
L3673 6491
L3692 6510
L3730 6530
L3806 6530
L3845 6510
L3864 6491
L3883 6453
L3883 6377
L3864 6339
L3845 6320
L3806 6301
" />
<path d="M6226 13518
L6226 13118
L6378 13118
L6416 13137
L6435 13156
L6454 13194
L6454 13251
L6435 13289
L6416 13308
L6378 13327
L6226 13327
" />
<path d="M6588 13118
L6854 13118
L6683 13518
" />
<path d="M3273 13518
L3273 13118
L3426 13118
L3464 13137
L3483 13156
L3502 13194
L3502 13251
L3483 13289
L3464 13308
L3426 13327
L3273 13327
" />
<path d="M3845 13118
L3768 13118
L3730 13137
L3711 13156
L3673 13213
L3654 13289
L3654 13442
L3673 13480
L3692 13499
L3730 13518
L3806 13518
L3845 13499
L3864 13480
L3883 13442
L3883 13346
L3864 13308
L3845 13289
L3806 13270
L3730 13270
L3692 13289
L3673 13308
L3654 13346
" />
<path d="M6226 20506
L6226 20106
L6378 20106
L6416 20125
L6435 20144
L6454 20182
L6454 20239
L6435 20277
L6416 20296
L6378 20315
L6226 20315
" />
<path d="M6816 20106
L6626 20106
L6607 20296
L6626 20277
L6664 20258
L6759 20258
L6797 20277
L6816 20296
L6835 20334
L6835 20430
L6816 20468
L6797 20487
L6759 20506
L6664 20506
L6626 20487
L6607 20468
" />
<path d="M3273 20506
L3273 20106
L3426 20106
L3464 20125
L3483 20144
L3502 20182
L3502 20239
L3483 20277
L3464 20296
L3426 20315
L3273 20315
" />
<path d="M3845 20239
L3845 20506
" />
<path d="M3749 20087
L3654 20373
L3902 20373
" />
<path d="M3264 34581
L3264 34181
L3492 34581
L3492 34181
" />
<path d="M3892 34581
L3664 34581
" />
<path d="M3778 34581
L3778 34181
L3740 34238
L3702 34276
L3664 34295
" />
<path d="M3273 27494
L3273 27094
L3426 27094
L3464 27113
L3483 27132
L3502 27170
L3502 27227
L3483 27266
L3464 27285
L3426 27304
L3273 27304
" />
<path d="M3654 27132
L3673 27113
L3711 27094
L3806 27094
L3845 27113
L3864 27132
L3883 27170
L3883 27208
L3864 27266
L3635 27494
L3883 27494
" />
<path d="M3264 10171
L3264 9771
L3492 10171
L3492 9771
" />
<path d="M3740 9943
L3702 9924
L3683 9905
L3664 9866
L3664 9847
L3683 9809
L3702 9790
L3740 9771
L3816 9771
L3854 9790
L3873 9809
L3892 9847
L3892 9866
L3873 9905
L3854 9924
L3816 9943
L3740 9943
L3702 9962
L3683 9981
L3664 10019
L3664 10095
L3683 10133
L3702 10152
L3740 10171
L3816 10171
L3854 10152
L3873 10133
L3892 10095
L3892 10019
L3873 9981
L3854 9962
L3816 9943
" />
<path d="M6216 17159
L6216 16759
L6445 17159
L6445 16759
" />
<path d="M6597 16759
L6864 16759
L6693 17159
" />
<path d="M3264 17159
L3264 16759
L3492 17159
L3492 16759
" />
<path d="M3854 16759
L3778 16759
L3740 16778
L3721 16798
L3683 16855
L3664 16931
L3664 17083
L3683 17121
L3702 17140
L3740 17159
L3816 17159
L3854 17140
L3873 17121
L3892 17083
L3892 16988
L3873 16950
L3854 16931
L3816 16912
L3740 16912
L3702 16931
L3683 16950
L3664 16988
" />
<path d="M6226 34581
L6226 34181
L6378 34181
L6416 34200
L6435 34219
L6454 34257
L6454 34314
L6435 34352
L6416 34371
L6378 34390
L6226 34390
" />
<path d="M6835 34581
L6607 34581
" />
<path d="M6721 34581
L6721 34181
L6683 34238
L6645 34276
L6607 34295
" />
<path d="M6216 24148
L6216 23748
L6445 24148
L6445 23748
" />
<path d="M6826 23748
L6635 23748
L6616 23938
L6635 23919
L6674 23900
L6769 23900
L6807 23919
L6826 23938
L6845 23976
L6845 24071
L6826 24110
L6807 24129
L6769 24148
L6674 24148
L6635 24129
L6616 24110
" />
<path d="M3264 24148
L3264 23748
L3492 24148
L3492 23748
" />
<path d="M3854 23881
L3854 24148
" />
<path d="M3759 23729
L3664 24014
L3911 24014
" />
<path d="M6216 31037
L6216 30637
L6445 31037
L6445 30637
" />
<path d="M6597 30637
L6845 30637
L6712 30790
L6769 30790
L6807 30809
L6826 30828
L6845 30866
L6845 30961
L6826 30999
L6807 31018
L6769 31037
L6654 31037
L6616 31018
L6597 30999
" />
<path d="M3264 31037
L3264 30637
L3492 31037
L3492 30637
" />
<path d="M3664 30675
L3683 30656
L3721 30637
L3816 30637
L3854 30656
L3873 30675
L3892 30714
L3892 30752
L3873 30809
L3645 31037
L3892 31037
" />
</g>
<g style="fill:#000000; fill-opacity:0.0; 
stroke:#000000; stroke-width:150; stroke-opacity:1; 
stroke-linecap:round; stroke-linejoin:round;">
<path d="M2545 3332
L4513 3332
" />
<path d="M4513 3332
L4513 5300
" />
<path d="M4513 5300
L2545 5300
" />
<path d="M2545 5300
L2545 3332
" />
<path d="M5545 27832
L7513 27832
" />
<path d="M7513 27832
L7513 29800
" />
<path d="M7513 29800
L5545 29800
" />
<path d="M5545 29800
L5545 27832
" />
<path d="M5545 3332
L7513 3332
" />
<path d="M7513 3332
L7513 5300
" />
<path d="M7513 5300
L5545 5300
" />
<path d="M5545 5300
L5545 3332
" />
<path d="M5545 6832
L7513 6832
" />
<path d="M7513 6832
L7513 8800
" />
<path d="M7513 8800
L5545 8800
" />
<path d="M5545 8800
L5545 6832
" />
<path d="M5545 10332
L7513 10332
" />
<path d="M7513 10332
L7513 12300
" />
<path d="M7513 12300
L5545 12300
" />
<path d="M5545 12300
L5545 10332
" />
<path d="M2545 6832
L4513 6832
" />
<path d="M4513 6832
L4513 8800
" />
<path d="M4513 8800
L2545 8800
" />
<path d="M2545 8800
L2545 6832
" />
<path d="M5545 13832
L7513 13832
" />
<path d="M7513 13832
L7513 15800
" />
<path d="M7513 15800
L5545 15800
" />
<path d="M5545 15800
L5545 13832
" />
<path d="M2545 13832
L4513 13832
" />
<path d="M4513 13832
L4513 15800
" />
<path d="M4513 15800
L2545 15800
" />
<path d="M2545 15800
L2545 13832
" />
<path d="M5545 20832
L7513 20832
" />
<path d="M7513 20832
L7513 22800
" />
<path d="M7513 22800
L5545 22800
" />
<path d="M5545 22800
L5545 20832
" />
<path d="M2545 20832
L4513 20832
" />
<path d="M4513 20832
L4513 22800
" />
<path d="M4513 22800
L2545 22800
" />
<path d="M2545 22800
L2545 20832
" />
<path d="M2545 34832
L4513 34832
" />
<path d="M4513 34832
L4513 36800
" />
<path d="M4513 36800
L2545 36800
" />
<path d="M2545 36800
L2545 34832
" />
<path d="M2545 27832
L4513 27832
" />
<path d="M4513 27832
L4513 29800
" />
<path d="M4513 29800
L2545 29800
" />
<path d="M2545 29800
L2545 27832
" />
<path d="M2545 10332
L4513 10332
" />
<path d="M4513 10332
L4513 12300
" />
<path d="M4513 12300
L2545 12300
" />
<path d="M2545 12300
L2545 10332
" />
<path d="M5545 17332
L7513 17332
" />
<path d="M7513 17332
L7513 19300
" />
<path d="M7513 19300
L5545 19300
" />
<path d="M5545 19300
L5545 17332
" />
<path d="M2545 17332
L4513 17332
" />
<path d="M4513 17332
L4513 19300
" />
<path d="M4513 19300
L2545 19300
" />
<path d="M2545 19300
L2545 17332
" />
<path d="M5545 34832
L7513 34832
" />
<path d="M7513 34832
L7513 36800
" />
<path d="M7513 36800
L5545 36800
" />
<path d="M5545 36800
L5545 34832
" />
<path d="M5545 24332
L7513 24332
" />
<path d="M7513 24332
L7513 26300
" />
<path d="M7513 26300
L5545 26300
" />
<path d="M5545 26300
L5545 24332
" />
<path d="M2545 24332
L4513 24332
" />
<path d="M4513 24332
L4513 26300
" />
<path d="M4513 26300
L2545 26300
" />
<path d="M2545 26300
L2545 24332
" />
<path d="M5545 31332
L7513 31332
" />
<path d="M7513 31332
L7513 33300
" />
<path d="M7513 33300
L5545 33300
" />
<path d="M5545 33300
L5545 31332
" />
<path d="M2545 31332
L4513 31332
" />
<path d="M4513 31332
L4513 33300
" />
<path d="M4513 33300
L2545 33300
" />
<path d="M2545 33300
L2545 31332
" />
</g> 
</svg>
