<?xml version="1.0" standalone="no"?>
 <!DOCTYPE svg PUBLIC "-//W3C//DTD SVG 1.1//EN" 
 "http://www.w3.org/Graphics/SVG/1.1/DTD/svg11.dtd"> 
<svg xmlns="http://www.w3.org/2000/svg" version="1.1" 
    width="2.9337cm" height="9.41324cm" viewBox="0 0 11550 37060 ">
<title>SVG Picture created as Power distribution board-F_SilkS.svg date 2014/12/06 21:49:59 </title>
  <desc>Picture generated by PCBNEW </desc>
<g style="fill:#000000; fill-opacity:1;stroke:#000000; stroke-opacity:1;
stroke-linecap:round; stroke-linejoin:round; "
 transform="translate(0 0) scale(1 1)">
</g>
<g style="fill:#000000; fill-opacity:0.0; 
stroke:#000000; stroke-width:78.7402; stroke-opacity:1; 
stroke-linecap:round; stroke-linejoin:round;">
<circle cx="8435.04" cy="30467.5" r="508.865" /> 
</g>
<g style="fill:#000000; fill-opacity:0.0; 
stroke:#000000; stroke-width:118.11; stroke-opacity:1; 
stroke-linecap:round; stroke-linejoin:round;">
<path d="M8135 30466
L8735 30466
" />
<path d="M8146 23474
L8746 23474
" />
</g>
<g style="fill:#000000; fill-opacity:0.0; 
stroke:#000000; stroke-width:78.7402; stroke-opacity:1; 
stroke-linecap:round; stroke-linejoin:round;">
<circle cx="8446.85" cy="23475.4" r="508.865" /> 
<circle cx="8486.22" cy="9526.54" r="508.865" /> 
</g>
<g style="fill:#000000; fill-opacity:0.0; 
stroke:#000000; stroke-width:118.11; stroke-opacity:1; 
stroke-linecap:round; stroke-linejoin:round;">
<path d="M8186 9525
L8786 9525
" />
<path d="M8174 16490
L8774 16490
" />
</g>
<g style="fill:#000000; fill-opacity:0.0; 
stroke:#000000; stroke-width:78.7402; stroke-opacity:1; 
stroke-linecap:round; stroke-linejoin:round;">
<circle cx="8474.41" cy="16491.1" r="508.865" /> 
<circle cx="1545.28" cy="16471.4" r="508.865" /> 
</g>
<g style="fill:#000000; fill-opacity:0.0; 
stroke:#000000; stroke-width:118.11; stroke-opacity:1; 
stroke-linecap:round; stroke-linejoin:round;">
<path d="M1245 16470
L1845 16470
" />
<path d="M1257 9505
L1857 9505
" />
</g>
<g style="fill:#000000; fill-opacity:0.0; 
stroke:#000000; stroke-width:78.7402; stroke-opacity:1; 
stroke-linecap:round; stroke-linejoin:round;">
<circle cx="1557.09" cy="9506.85" r="508.865" /> 
<circle cx="1517.72" cy="23455.7" r="508.865" /> 
</g>
<g style="fill:#000000; fill-opacity:0.0; 
stroke:#000000; stroke-width:118.11; stroke-opacity:1; 
stroke-linecap:round; stroke-linejoin:round;">
<path d="M1217 23454
L1817 23454
" />
<path d="M1205 30446
L1805 30446
" />
</g>
<g style="fill:#000000; fill-opacity:0.0; 
stroke:#000000; stroke-width:78.7402; stroke-opacity:1; 
stroke-linecap:round; stroke-linejoin:round;">
<circle cx="1505.91" cy="30447.8" r="508.865" /> 
</g>
<g style="fill:#000000; fill-opacity:0.0; 
stroke:#000000; stroke-width:118.11; stroke-opacity:1; 
stroke-linecap:round; stroke-linejoin:round;">
<path d="M1261 2435
L1860 2435
" />
</g>
<g style="fill:#000000; fill-opacity:0.0; 
stroke:#000000; stroke-width:78.7402; stroke-opacity:1; 
stroke-linecap:round; stroke-linejoin:round;">
<circle cx="1557.09" cy="2435.98" r="505.426" /> 
<circle cx="1505.91" cy="27002.9" r="508.865" /> 
</g>
<g style="fill:#000000; fill-opacity:0.0; 
stroke:#000000; stroke-width:118.11; stroke-opacity:1; 
stroke-linecap:round; stroke-linejoin:round;">
<path d="M1205 27001
L1805 27001
" />
<path d="M1505 27301
L1505 26702
" />
<path d="M1217 20009
L1817 20009
" />
<path d="M1517 20309
L1517 19709
" />
</g>
<g style="fill:#000000; fill-opacity:0.0; 
stroke:#000000; stroke-width:78.7402; stroke-opacity:1; 
stroke-linecap:round; stroke-linejoin:round;">
<circle cx="1517.72" cy="20010.8" r="508.865" /> 
<circle cx="1557.09" cy="6061.97" r="508.865" /> 
</g>
<g style="fill:#000000; fill-opacity:0.0; 
stroke:#000000; stroke-width:118.11; stroke-opacity:1; 
stroke-linecap:round; stroke-linejoin:round;">
<path d="M1257 6061
L1857 6061
" />
<path d="M1557 6360
L1557 5761
" />
<path d="M1245 13025
L1845 13025
" />
<path d="M1545 13325
L1545 12725
" />
</g>
<g style="fill:#000000; fill-opacity:0.0; 
stroke:#000000; stroke-width:78.7402; stroke-opacity:1; 
stroke-linecap:round; stroke-linejoin:round;">
<circle cx="1545.28" cy="13026.5" r="508.865" /> 
<circle cx="8549.21" cy="2447.8" r="508.865" /> 
</g>
<g style="fill:#000000; fill-opacity:0.0; 
stroke:#000000; stroke-width:118.11; stroke-opacity:1; 
stroke-linecap:round; stroke-linejoin:round;">
<path d="M8249 2446
L8849 2446
" />
<path d="M8549 2746
L8549 2146
" />
</g>
<g style="fill:#000000; fill-opacity:0.0; 
stroke:#000000; stroke-width:78.7402; stroke-opacity:1; 
stroke-linecap:round; stroke-linejoin:round;">
<circle cx="8474.41" cy="13046.2" r="508.865" /> 
</g>
<g style="fill:#000000; fill-opacity:0.0; 
stroke:#000000; stroke-width:118.11; stroke-opacity:1; 
stroke-linecap:round; stroke-linejoin:round;">
<path d="M8174 13045
L8774 13045
" />
<path d="M8474 13345
L8474 12745
" />
<path d="M8186 6080
L8786 6080
" />
<path d="M8486 6380
L8486 5780
" />
</g>
<g style="fill:#000000; fill-opacity:0.0; 
stroke:#000000; stroke-width:78.7402; stroke-opacity:1; 
stroke-linecap:round; stroke-linejoin:round;">
<circle cx="8486.22" cy="6081.65" r="508.865" /> 
<circle cx="8446.85" cy="20030.5" r="508.865" /> 
</g>
<g style="fill:#000000; fill-opacity:0.0; 
stroke:#000000; stroke-width:118.11; stroke-opacity:1; 
stroke-linecap:round; stroke-linejoin:round;">
<path d="M8146 20029
L8746 20029
" />
<path d="M8446 20329
L8446 19729
" />
<path d="M8135 27021
L8735 27021
" />
<path d="M8435 27321
L8435 26721
" />
</g>
<g style="fill:#000000; fill-opacity:0.0; 
stroke:#000000; stroke-width:78.7402; stroke-opacity:1; 
stroke-linecap:round; stroke-linejoin:round;">
<circle cx="8435.04" cy="27022.6" r="508.865" /> 
<circle cx="8450.79" cy="34032.8" r="508.865" /> 
<circle cx="1576.77" cy="34000.9" r="505.426" /> 
</g>
<g style="fill:#000000; fill-opacity:0.0; 
stroke:#000000; stroke-width:118.11; stroke-opacity:1; 
stroke-linecap:round; stroke-linejoin:round;">
<path d="M1280 34000
L1880 34000
" />
<path d="M8150 34031
L8750 34031
" />
<path d="M8450 34331
L8450 33731
" />
</g>
<g style="fill:#000000; fill-opacity:0.0; 
stroke:#000000; stroke-width:100; stroke-opacity:1; 
stroke-linecap:round; stroke-linejoin:round;">
<path d="M3073 1200
L3073 800
L3302 1200
L3302 800
" />
<path d="M3702 1200
L3473 1200
" />
<path d="M3587 1200
L3587 800
L3549 857
L3511 895
L3473 914
" />
<path d="M3949 800
L3987 800
L4026 819
L4045 838
L4064 876
L4083 952
L4083 1047
L4064 1124
L4045 1162
L4026 1181
L3987 1200
L3949 1200
L3911 1181
L3892 1162
L3873 1124
L3854 1047
L3854 952
L3873 876
L3892 838
L3911 819
L3949 800
" />
<path d="M6226 25708
L6226 25308
L6378 25308
L6416 25327
L6435 25346
L6454 25384
L6454 25441
L6435 25479
L6416 25498
L6378 25517
L6226 25517
" />
<path d="M6588 25308
L6835 25308
L6702 25460
L6759 25460
L6797 25479
L6816 25498
L6835 25536
L6835 25631
L6816 25670
L6797 25689
L6759 25708
L6645 25708
L6607 25689
L6588 25670
" />
<path d="M6035 1200
L6035 800
L6188 800
L6226 819
L6245 838
L6264 876
L6264 933
L6245 971
L6226 990
L6188 1009
L6035 1009
" />
<path d="M6645 1200
L6416 1200
" />
<path d="M6531 1200
L6531 800
L6493 857
L6454 895
L6416 914
" />
<path d="M6893 800
L6931 800
L6969 819
L6988 838
L7007 876
L7026 952
L7026 1047
L7007 1124
L6988 1162
L6969 1181
L6931 1200
L6893 1200
L6854 1181
L6835 1162
L6816 1124
L6797 1047
L6797 952
L6816 876
L6835 838
L6854 819
L6893 800
" />
<path d="M6226 4743
L6226 4343
L6378 4343
L6416 4362
L6435 4381
L6454 4419
L6454 4476
L6435 4514
L6416 4534
L6378 4553
L6226 4553
" />
<path d="M6645 4743
L6721 4743
L6759 4724
L6778 4705
L6816 4648
L6835 4572
L6835 4419
L6816 4381
L6797 4362
L6759 4343
L6683 4343
L6645 4362
L6626 4381
L6607 4419
L6607 4514
L6626 4553
L6645 4572
L6683 4591
L6759 4591
L6797 4572
L6816 4553
L6835 4514
" />
<path d="M6216 8385
L6216 7985
L6445 8385
L6445 7985
" />
<path d="M6654 8385
L6731 8385
L6769 8366
L6788 8347
L6826 8290
L6845 8213
L6845 8061
L6826 8023
L6807 8004
L6769 7985
L6693 7985
L6654 8004
L6635 8023
L6616 8061
L6616 8156
L6635 8194
L6654 8213
L6693 8232
L6769 8232
L6807 8213
L6826 8194
L6845 8156
" />
<path d="M3273 4743
L3273 4343
L3426 4343
L3464 4362
L3483 4381
L3502 4419
L3502 4476
L3483 4514
L3464 4534
L3426 4553
L3273 4553
" />
<path d="M3730 4514
L3692 4495
L3673 4476
L3654 4438
L3654 4419
L3673 4381
L3692 4362
L3730 4343
L3806 4343
L3845 4362
L3864 4381
L3883 4419
L3883 4438
L3864 4476
L3845 4495
L3806 4514
L3730 4514
L3692 4534
L3673 4553
L3654 4591
L3654 4667
L3673 4705
L3692 4724
L3730 4743
L3806 4743
L3845 4724
L3864 4705
L3883 4667
L3883 4591
L3864 4553
L3845 4534
L3806 4514
" />
<path d="M6226 11731
L6226 11331
L6378 11331
L6416 11350
L6435 11369
L6454 11407
L6454 11465
L6435 11503
L6416 11522
L6378 11541
L6226 11541
" />
<path d="M6588 11331
L6854 11331
L6683 11731
" />
<path d="M3273 11731
L3273 11331
L3426 11331
L3464 11350
L3483 11369
L3502 11407
L3502 11465
L3483 11503
L3464 11522
L3426 11541
L3273 11541
" />
<path d="M3845 11331
L3768 11331
L3730 11350
L3711 11369
L3673 11426
L3654 11503
L3654 11655
L3673 11693
L3692 11712
L3730 11731
L3806 11731
L3845 11712
L3864 11693
L3883 11655
L3883 11560
L3864 11522
L3845 11503
L3806 11484
L3730 11484
L3692 11503
L3673 11522
L3654 11560
" />
<path d="M6226 18719
L6226 18319
L6378 18319
L6416 18338
L6435 18358
L6454 18396
L6454 18453
L6435 18491
L6416 18510
L6378 18529
L6226 18529
" />
<path d="M6816 18319
L6626 18319
L6607 18510
L6626 18491
L6664 18472
L6759 18472
L6797 18491
L6816 18510
L6835 18548
L6835 18643
L6816 18681
L6797 18700
L6759 18719
L6664 18719
L6626 18700
L6607 18681
" />
<path d="M3273 18719
L3273 18319
L3426 18319
L3464 18338
L3483 18358
L3502 18396
L3502 18453
L3483 18491
L3464 18510
L3426 18529
L3273 18529
" />
<path d="M3845 18453
L3845 18719
" />
<path d="M3749 18300
L3654 18586
L3902 18586
" />
<path d="M3264 32794
L3264 32394
L3492 32794
L3492 32394
" />
<path d="M3892 32794
L3664 32794
" />
<path d="M3778 32794
L3778 32394
L3740 32451
L3702 32489
L3664 32509
" />
<path d="M3273 25708
L3273 25308
L3426 25308
L3464 25327
L3483 25346
L3502 25384
L3502 25441
L3483 25479
L3464 25498
L3426 25517
L3273 25517
" />
<path d="M3654 25346
L3673 25327
L3711 25308
L3806 25308
L3845 25327
L3864 25346
L3883 25384
L3883 25422
L3864 25479
L3635 25708
L3883 25708
" />
<path d="M3264 8385
L3264 7985
L3492 8385
L3492 7985
" />
<path d="M3740 8156
L3702 8137
L3683 8118
L3664 8080
L3664 8061
L3683 8023
L3702 8004
L3740 7985
L3816 7985
L3854 8004
L3873 8023
L3892 8061
L3892 8080
L3873 8118
L3854 8137
L3816 8156
L3740 8156
L3702 8175
L3683 8194
L3664 8232
L3664 8309
L3683 8347
L3702 8366
L3740 8385
L3816 8385
L3854 8366
L3873 8347
L3892 8309
L3892 8232
L3873 8194
L3854 8175
L3816 8156
" />
<path d="M6216 15373
L6216 14973
L6445 15373
L6445 14973
" />
<path d="M6597 14973
L6864 14973
L6693 15373
" />
<path d="M3264 15373
L3264 14973
L3492 15373
L3492 14973
" />
<path d="M3854 14973
L3778 14973
L3740 14992
L3721 15011
L3683 15068
L3664 15144
L3664 15297
L3683 15335
L3702 15354
L3740 15373
L3816 15373
L3854 15354
L3873 15335
L3892 15297
L3892 15202
L3873 15163
L3854 15144
L3816 15125
L3740 15125
L3702 15144
L3683 15163
L3664 15202
" />
<path d="M6226 32794
L6226 32394
L6378 32394
L6416 32413
L6435 32432
L6454 32470
L6454 32528
L6435 32566
L6416 32585
L6378 32604
L6226 32604
" />
<path d="M6835 32794
L6607 32794
" />
<path d="M6721 32794
L6721 32394
L6683 32451
L6645 32489
L6607 32509
" />
<path d="M6216 22361
L6216 21961
L6445 22361
L6445 21961
" />
<path d="M6826 21961
L6635 21961
L6616 22152
L6635 22133
L6674 22114
L6769 22114
L6807 22133
L6826 22152
L6845 22190
L6845 22285
L6826 22323
L6807 22342
L6769 22361
L6674 22361
L6635 22342
L6616 22323
" />
<path d="M3264 22361
L3264 21961
L3492 22361
L3492 21961
" />
<path d="M3854 22095
L3854 22361
" />
<path d="M3759 21942
L3664 22228
L3911 22228
" />
<path d="M6216 29251
L6216 28851
L6445 29251
L6445 28851
" />
<path d="M6597 28851
L6845 28851
L6712 29003
L6769 29003
L6807 29022
L6826 29041
L6845 29080
L6845 29175
L6826 29213
L6807 29232
L6769 29251
L6654 29251
L6616 29232
L6597 29213
" />
<path d="M3264 29251
L3264 28851
L3492 29251
L3492 28851
" />
<path d="M3664 28889
L3683 28870
L3721 28851
L3816 28851
L3854 28870
L3873 28889
L3892 28927
L3892 28965
L3873 29022
L3645 29251
L3892 29251
" />
</g>
<g style="fill:#000000; fill-opacity:0.0; 
stroke:#000000; stroke-width:150; stroke-opacity:1; 
stroke-linecap:round; stroke-linejoin:round;">
<path d="M2545 1546
L4513 1546
" />
<path d="M4513 1546
L4513 3514
" />
<path d="M4513 3514
L2545 3514
" />
<path d="M2545 3514
L2545 1546
" />
<path d="M5545 26046
L7513 26046
" />
<path d="M7513 26046
L7513 28014
" />
<path d="M7513 28014
L5545 28014
" />
<path d="M5545 28014
L5545 26046
" />
<path d="M5545 1546
L7513 1546
" />
<path d="M7513 1546
L7513 3514
" />
<path d="M7513 3514
L5545 3514
" />
<path d="M5545 3514
L5545 1546
" />
<path d="M5545 5046
L7513 5046
" />
<path d="M7513 5046
L7513 7014
" />
<path d="M7513 7014
L5545 7014
" />
<path d="M5545 7014
L5545 5046
" />
<path d="M5545 8546
L7513 8546
" />
<path d="M7513 8546
L7513 10514
" />
<path d="M7513 10514
L5545 10514
" />
<path d="M5545 10514
L5545 8546
" />
<path d="M2545 5046
L4513 5046
" />
<path d="M4513 5046
L4513 7014
" />
<path d="M4513 7014
L2545 7014
" />
<path d="M2545 7014
L2545 5046
" />
<path d="M5545 12046
L7513 12046
" />
<path d="M7513 12046
L7513 14014
" />
<path d="M7513 14014
L5545 14014
" />
<path d="M5545 14014
L5545 12046
" />
<path d="M2545 12046
L4513 12046
" />
<path d="M4513 12046
L4513 14014
" />
<path d="M4513 14014
L2545 14014
" />
<path d="M2545 14014
L2545 12046
" />
<path d="M5545 19046
L7513 19046
" />
<path d="M7513 19046
L7513 21014
" />
<path d="M7513 21014
L5545 21014
" />
<path d="M5545 21014
L5545 19046
" />
<path d="M2545 19046
L4513 19046
" />
<path d="M4513 19046
L4513 21014
" />
<path d="M4513 21014
L2545 21014
" />
<path d="M2545 21014
L2545 19046
" />
<path d="M2545 33046
L4513 33046
" />
<path d="M4513 33046
L4513 35014
" />
<path d="M4513 35014
L2545 35014
" />
<path d="M2545 35014
L2545 33046
" />
<path d="M2545 26046
L4513 26046
" />
<path d="M4513 26046
L4513 28014
" />
<path d="M4513 28014
L2545 28014
" />
<path d="M2545 28014
L2545 26046
" />
<path d="M2545 8546
L4513 8546
" />
<path d="M4513 8546
L4513 10514
" />
<path d="M4513 10514
L2545 10514
" />
<path d="M2545 10514
L2545 8546
" />
<path d="M5545 15546
L7513 15546
" />
<path d="M7513 15546
L7513 17514
" />
<path d="M7513 17514
L5545 17514
" />
<path d="M5545 17514
L5545 15546
" />
<path d="M2545 15546
L4513 15546
" />
<path d="M4513 15546
L4513 17514
" />
<path d="M4513 17514
L2545 17514
" />
<path d="M2545 17514
L2545 15546
" />
<path d="M5545 33046
L7513 33046
" />
<path d="M7513 33046
L7513 35014
" />
<path d="M7513 35014
L5545 35014
" />
<path d="M5545 35014
L5545 33046
" />
<path d="M5545 22546
L7513 22546
" />
<path d="M7513 22546
L7513 24514
" />
<path d="M7513 24514
L5545 24514
" />
<path d="M5545 24514
L5545 22546
" />
<path d="M2545 22546
L4513 22546
" />
<path d="M4513 22546
L4513 24514
" />
<path d="M4513 24514
L2545 24514
" />
<path d="M2545 24514
L2545 22546
" />
<path d="M5545 29546
L7513 29546
" />
<path d="M7513 29546
L7513 31514
" />
<path d="M7513 31514
L5545 31514
" />
<path d="M5545 31514
L5545 29546
" />
<path d="M2545 29546
L4513 29546
" />
<path d="M4513 29546
L4513 31514
" />
<path d="M4513 31514
L2545 31514
" />
<path d="M2545 31514
L2545 29546
" />
</g> 
</svg>
