<?xml version="1.0" standalone="no"?>
 <!DOCTYPE svg PUBLIC "-//W3C//DTD SVG 1.1//EN" 
 "http://www.w3.org/Graphics/SVG/1.1/DTD/svg11.dtd"> 
<svg xmlns="http://www.w3.org/2000/svg" version="1.1" 
    width="21.0007cm" height="29.7002cm" viewBox="0 0 82680 116930 ">
<title>SVG Picture created as Power distribution board-F_SilkS.svg date 2014/12/06 18:29:39 </title>
  <desc>Picture generated by PCBNEW </desc>
<g style="fill:#000000; fill-opacity:1;stroke:#000000; stroke-opacity:1;
stroke-linecap:round; stroke-linejoin:round; "
 transform="translate(0 0) scale(1 1)">
</g>
<g style="fill:#000000; fill-opacity:0.0; 
stroke:#000000; stroke-width:39.3701; stroke-opacity:1; 
stroke-linecap:round; stroke-linejoin:round;">
<path d="M11107 109205
L11136 109223
L11145 109242
L11154 109280
L11154 109336
L11145 109373
L11136 109392
L11117 109411
L11042 109411
L11042 109017
L11107 109017
L11126 109036
L11136 109055
L11145 109092
L11145 109130
L11136 109167
L11126 109186
L11107 109205
L11042 109205
" />
<path d="M11323 109411
L11323 109205
L11314 109167
L11295 109148
L11257 109148
L11239 109167
" />
<path d="M11323 109392
L11304 109411
L11257 109411
L11239 109392
L11229 109355
L11229 109317
L11239 109280
L11257 109261
L11304 109261
L11323 109242
" />
<path d="M11389 109148
L11464 109148
" />
<path d="M11417 109017
L11417 109355
L11426 109392
L11445 109411
L11464 109411
" />
<path d="M11501 109148
L11576 109148
" />
<path d="M11529 109017
L11529 109355
L11539 109392
L11557 109411
L11576 109411
" />
<path d="M11717 109392
L11698 109411
L11661 109411
L11642 109392
L11632 109355
L11632 109205
L11642 109167
L11661 109148
L11698 109148
L11717 109167
L11726 109205
L11726 109242
L11632 109280
" />
<path d="M11811 109411
L11811 109148
" />
<path d="M11811 109223
L11820 109186
L11829 109167
L11848 109148
L11867 109148
" />
<path d="M11914 109148
L11961 109411
" />
<path d="M12007 109148
L11961 109411
L11942 109505
L11932 109523
L11914 109542
" />
</g>
<g style="fill:#000000; fill-opacity:0.0; 
stroke:#000000; stroke-width:78.7402; stroke-opacity:1; 
stroke-linecap:round; stroke-linejoin:round;">
<circle cx="14905.5" cy="103937" r="508.865" /> 
</g>
<g style="fill:#000000; fill-opacity:0.0; 
stroke:#000000; stroke-width:118.11; stroke-opacity:1; 
stroke-linecap:round; stroke-linejoin:round;">
<path d="M14605 103936
L15205 103936
" />
<path d="M14617 96943
L15217 96943
" />
</g>
<g style="fill:#000000; fill-opacity:0.0; 
stroke:#000000; stroke-width:78.7402; stroke-opacity:1; 
stroke-linecap:round; stroke-linejoin:round;">
<circle cx="14917.3" cy="96944.9" r="508.865" /> 
<circle cx="14956.7" cy="82996.1" r="508.865" /> 
</g>
<g style="fill:#000000; fill-opacity:0.0; 
stroke:#000000; stroke-width:118.11; stroke-opacity:1; 
stroke-linecap:round; stroke-linejoin:round;">
<path d="M14656 82995
L15256 82995
" />
<path d="M14644 89959
L15244 89959
" />
</g>
<g style="fill:#000000; fill-opacity:0.0; 
stroke:#000000; stroke-width:78.7402; stroke-opacity:1; 
stroke-linecap:round; stroke-linejoin:round;">
<circle cx="14944.9" cy="89960.6" r="508.865" /> 
<circle cx="8015.75" cy="89940.9" r="508.865" /> 
</g>
<g style="fill:#000000; fill-opacity:0.0; 
stroke:#000000; stroke-width:118.11; stroke-opacity:1; 
stroke-linecap:round; stroke-linejoin:round;">
<path d="M7715 89940
L8315 89940
" />
<path d="M7727 82975
L8327 82975
" />
</g>
<g style="fill:#000000; fill-opacity:0.0; 
stroke:#000000; stroke-width:78.7402; stroke-opacity:1; 
stroke-linecap:round; stroke-linejoin:round;">
<circle cx="8027.56" cy="82976.4" r="508.865" /> 
<circle cx="7988.19" cy="96925.2" r="508.865" /> 
</g>
<g style="fill:#000000; fill-opacity:0.0; 
stroke:#000000; stroke-width:118.11; stroke-opacity:1; 
stroke-linecap:round; stroke-linejoin:round;">
<path d="M7688 96924
L8288 96924
" />
<path d="M7676 103916
L8276 103916
" />
</g>
<g style="fill:#000000; fill-opacity:0.0; 
stroke:#000000; stroke-width:78.7402; stroke-opacity:1; 
stroke-linecap:round; stroke-linejoin:round;">
<circle cx="7976.38" cy="103917" r="508.865" /> 
</g>
<g style="fill:#000000; fill-opacity:0.0; 
stroke:#000000; stroke-width:118.11; stroke-opacity:1; 
stroke-linecap:round; stroke-linejoin:round;">
<path d="M7731 75904
L8331 75904
" />
</g>
<g style="fill:#000000; fill-opacity:0.0; 
stroke:#000000; stroke-width:78.7402; stroke-opacity:1; 
stroke-linecap:round; stroke-linejoin:round;">
<circle cx="8027.56" cy="75905.5" r="505.426" /> 
<circle cx="7976.38" cy="100472" r="508.865" /> 
</g>
<g style="fill:#000000; fill-opacity:0.0; 
stroke:#000000; stroke-width:118.11; stroke-opacity:1; 
stroke-linecap:round; stroke-linejoin:round;">
<path d="M7676 100471
L8276 100471
" />
<path d="M7976 100771
L7976 100171
" />
<path d="M7688 93479
L8288 93479
" />
<path d="M7988 93779
L7988 93179
" />
</g>
<g style="fill:#000000; fill-opacity:0.0; 
stroke:#000000; stroke-width:78.7402; stroke-opacity:1; 
stroke-linecap:round; stroke-linejoin:round;">
<circle cx="7988.19" cy="93480.3" r="508.865" /> 
<circle cx="8027.56" cy="79531.5" r="508.865" /> 
</g>
<g style="fill:#000000; fill-opacity:0.0; 
stroke:#000000; stroke-width:118.11; stroke-opacity:1; 
stroke-linecap:round; stroke-linejoin:round;">
<path d="M7727 79530
L8327 79530
" />
<path d="M8027 79830
L8027 79230
" />
<path d="M7715 86495
L8315 86495
" />
<path d="M8015 86795
L8015 86195
" />
</g>
<g style="fill:#000000; fill-opacity:0.0; 
stroke:#000000; stroke-width:78.7402; stroke-opacity:1; 
stroke-linecap:round; stroke-linejoin:round;">
<circle cx="8015.75" cy="86496.1" r="508.865" /> 
<circle cx="15019.7" cy="75917.3" r="508.865" /> 
</g>
<g style="fill:#000000; fill-opacity:0.0; 
stroke:#000000; stroke-width:118.11; stroke-opacity:1; 
stroke-linecap:round; stroke-linejoin:round;">
<path d="M14719 75916
L15319 75916
" />
<path d="M15019 76216
L15019 75616
" />
</g>
<g style="fill:#000000; fill-opacity:0.0; 
stroke:#000000; stroke-width:78.7402; stroke-opacity:1; 
stroke-linecap:round; stroke-linejoin:round;">
<circle cx="14944.9" cy="86515.7" r="508.865" /> 
</g>
<g style="fill:#000000; fill-opacity:0.0; 
stroke:#000000; stroke-width:118.11; stroke-opacity:1; 
stroke-linecap:round; stroke-linejoin:round;">
<path d="M14644 86514
L15244 86514
" />
<path d="M14944 86814
L14944 86214
" />
<path d="M14656 79550
L15256 79550
" />
<path d="M14956 79850
L14956 79250
" />
</g>
<g style="fill:#000000; fill-opacity:0.0; 
stroke:#000000; stroke-width:78.7402; stroke-opacity:1; 
stroke-linecap:round; stroke-linejoin:round;">
<circle cx="14956.7" cy="79551.2" r="508.865" /> 
<circle cx="14917.3" cy="93500" r="508.865" /> 
</g>
<g style="fill:#000000; fill-opacity:0.0; 
stroke:#000000; stroke-width:118.11; stroke-opacity:1; 
stroke-linecap:round; stroke-linejoin:round;">
<path d="M14617 93499
L15217 93499
" />
<path d="M14917 93799
L14917 93199
" />
<path d="M14605 100491
L15205 100491
" />
<path d="M14905 100791
L14905 100191
" />
</g>
<g style="fill:#000000; fill-opacity:0.0; 
stroke:#000000; stroke-width:78.7402; stroke-opacity:1; 
stroke-linecap:round; stroke-linejoin:round;">
<circle cx="14905.5" cy="100492" r="508.865" /> 
<circle cx="12992.1" cy="109272" r="508.865" /> 
<circle cx="9996.06" cy="109272" r="505.426" /> 
</g>
<g style="fill:#000000; fill-opacity:0.0; 
stroke:#000000; stroke-width:118.11; stroke-opacity:1; 
stroke-linecap:round; stroke-linejoin:round;">
<path d="M9700 109270
L10299 109270
" />
<path d="M12692 109270
L13292 109270
" />
<path d="M12992 109570
L12992 108970
" />
</g>
<g style="fill:#000000; fill-opacity:0.0; 
stroke:#000000; stroke-width:150; stroke-opacity:1; 
stroke-linecap:round; stroke-linejoin:round;">
<path d="M12016 99516
L13984 99516
" />
<path d="M13984 99516
L13984 101484
" />
<path d="M13984 101484
L12016 101484
" />
<path d="M12016 101484
L12016 99516
" />
<path d="M12016 75016
L13984 75016
" />
<path d="M13984 75016
L13984 76984
" />
<path d="M13984 76984
L12016 76984
" />
<path d="M12016 76984
L12016 75016
" />
<path d="M12016 78516
L13984 78516
" />
<path d="M13984 78516
L13984 80484
" />
<path d="M13984 80484
L12016 80484
" />
<path d="M12016 80484
L12016 78516
" />
<path d="M9016 75016
L10984 75016
" />
<path d="M10984 75016
L10984 76984
" />
<path d="M10984 76984
L9016 76984
" />
<path d="M9016 76984
L9016 75016
" />
<path d="M12016 82016
L13984 82016
" />
<path d="M13984 82016
L13984 83984
" />
<path d="M13984 83984
L12016 83984
" />
<path d="M12016 83984
L12016 82016
" />
<path d="M9016 78516
L10984 78516
" />
<path d="M10984 78516
L10984 80484
" />
<path d="M10984 80484
L9016 80484
" />
<path d="M9016 80484
L9016 78516
" />
<path d="M12016 85516
L13984 85516
" />
<path d="M13984 85516
L13984 87484
" />
<path d="M13984 87484
L12016 87484
" />
<path d="M12016 87484
L12016 85516
" />
<path d="M9016 85516
L10984 85516
" />
<path d="M10984 85516
L10984 87484
" />
<path d="M10984 87484
L9016 87484
" />
<path d="M9016 87484
L9016 85516
" />
<path d="M12016 92516
L13984 92516
" />
<path d="M13984 92516
L13984 94484
" />
<path d="M13984 94484
L12016 94484
" />
<path d="M12016 94484
L12016 92516
" />
<path d="M9016 92516
L10984 92516
" />
<path d="M10984 92516
L10984 94484
" />
<path d="M10984 94484
L9016 94484
" />
<path d="M9016 94484
L9016 92516
" />
<path d="M9016 106516
L10984 106516
" />
<path d="M10984 106516
L10984 108484
" />
<path d="M10984 108484
L9016 108484
" />
<path d="M9016 108484
L9016 106516
" />
<path d="M9016 99516
L10984 99516
" />
<path d="M10984 99516
L10984 101484
" />
<path d="M10984 101484
L9016 101484
" />
<path d="M9016 101484
L9016 99516
" />
<path d="M9016 82016
L10984 82016
" />
<path d="M10984 82016
L10984 83984
" />
<path d="M10984 83984
L9016 83984
" />
<path d="M9016 83984
L9016 82016
" />
<path d="M12016 89016
L13984 89016
" />
<path d="M13984 89016
L13984 90984
" />
<path d="M13984 90984
L12016 90984
" />
<path d="M12016 90984
L12016 89016
" />
<path d="M9016 89016
L10984 89016
" />
<path d="M10984 89016
L10984 90984
" />
<path d="M10984 90984
L9016 90984
" />
<path d="M9016 90984
L9016 89016
" />
<path d="M12016 106516
L13984 106516
" />
<path d="M13984 106516
L13984 108484
" />
<path d="M13984 108484
L12016 108484
" />
<path d="M12016 108484
L12016 106516
" />
<path d="M12016 96016
L13984 96016
" />
<path d="M13984 96016
L13984 97984
" />
<path d="M13984 97984
L12016 97984
" />
<path d="M12016 97984
L12016 96016
" />
<path d="M9016 96016
L10984 96016
" />
<path d="M10984 96016
L10984 97984
" />
<path d="M10984 97984
L9016 97984
" />
<path d="M9016 97984
L9016 96016
" />
<path d="M12016 103016
L13984 103016
" />
<path d="M13984 103016
L13984 104984
" />
<path d="M13984 104984
L12016 104984
" />
<path d="M12016 104984
L12016 103016
" />
<path d="M9016 103016
L10984 103016
" />
<path d="M10984 103016
L10984 104984
" />
<path d="M10984 104984
L9016 104984
" />
<path d="M9016 104984
L9016 103016
" />
</g>
<g style="fill:#000000; fill-opacity:0.0; 
stroke:#000000; stroke-width:100; stroke-opacity:1; 
stroke-linecap:round; stroke-linejoin:round;">
<path d="M12696 99177
L12696 98777
L12849 98777
L12887 98796
L12906 98815
L12925 98853
L12925 98910
L12906 98949
L12887 98968
L12849 98987
L12696 98987
" />
<path d="M13058 98777
L13306 98777
L13173 98930
L13230 98930
L13268 98949
L13287 98968
L13306 99006
L13306 99101
L13287 99139
L13268 99158
L13230 99177
L13115 99177
L13077 99158
L13058 99139
" />
<path d="M12506 74669
L12506 74269
L12658 74269
L12696 74288
L12715 74307
L12734 74345
L12734 74403
L12715 74441
L12696 74460
L12658 74479
L12506 74479
" />
<path d="M13115 74669
L12887 74669
" />
<path d="M13001 74669
L13001 74269
L12963 74326
L12925 74365
L12887 74384
" />
<path d="M13363 74269
L13401 74269
L13439 74288
L13458 74307
L13477 74345
L13496 74422
L13496 74517
L13477 74593
L13458 74631
L13439 74650
L13401 74669
L13363 74669
L13325 74650
L13306 74631
L13287 74593
L13268 74517
L13268 74422
L13287 74345
L13306 74307
L13325 74288
L13363 74269
" />
<path d="M12696 78213
L12696 77813
L12849 77813
L12887 77832
L12906 77851
L12925 77889
L12925 77946
L12906 77984
L12887 78003
L12849 78022
L12696 78022
" />
<path d="M13115 78213
L13192 78213
L13230 78194
L13249 78174
L13287 78117
L13306 78041
L13306 77889
L13287 77851
L13268 77832
L13230 77813
L13154 77813
L13115 77832
L13096 77851
L13077 77889
L13077 77984
L13096 78022
L13115 78041
L13154 78060
L13230 78060
L13268 78041
L13287 78022
L13306 77984
" />
<path d="M9544 74669
L9544 74269
L9772 74669
L9772 74269
" />
<path d="M10172 74669
L9944 74669
" />
<path d="M10058 74669
L10058 74269
L10020 74326
L9982 74365
L9944 74384
" />
<path d="M10420 74269
L10458 74269
L10496 74288
L10515 74307
L10534 74345
L10553 74422
L10553 74517
L10534 74593
L10515 74631
L10496 74650
L10458 74669
L10420 74669
L10382 74650
L10363 74631
L10344 74593
L10325 74517
L10325 74422
L10344 74345
L10363 74307
L10382 74288
L10420 74269
" />
<path d="M12687 81854
L12687 81454
L12915 81854
L12915 81454
" />
<path d="M13125 81854
L13201 81854
L13239 81835
L13258 81816
L13296 81759
L13315 81683
L13315 81531
L13296 81492
L13277 81473
L13239 81454
L13163 81454
L13125 81473
L13106 81492
L13087 81531
L13087 81626
L13106 81664
L13125 81683
L13163 81702
L13239 81702
L13277 81683
L13296 81664
L13315 81626
" />
<path d="M9744 78213
L9744 77813
L9896 77813
L9934 77832
L9953 77851
L9972 77889
L9972 77946
L9953 77984
L9934 78003
L9896 78022
L9744 78022
" />
<path d="M10201 77984
L10163 77965
L10144 77946
L10125 77908
L10125 77889
L10144 77851
L10163 77832
L10201 77813
L10277 77813
L10315 77832
L10334 77851
L10353 77889
L10353 77908
L10334 77946
L10315 77965
L10277 77984
L10201 77984
L10163 78003
L10144 78022
L10125 78060
L10125 78136
L10144 78174
L10163 78194
L10201 78213
L10277 78213
L10315 78194
L10334 78174
L10353 78136
L10353 78060
L10334 78022
L10315 78003
L10277 77984
" />
<path d="M12696 85201
L12696 84801
L12849 84801
L12887 84820
L12906 84839
L12925 84877
L12925 84934
L12906 84972
L12887 84991
L12849 85010
L12696 85010
" />
<path d="M13058 84801
L13325 84801
L13154 85201
" />
<path d="M9744 85201
L9744 84801
L9896 84801
L9934 84820
L9953 84839
L9972 84877
L9972 84934
L9953 84972
L9934 84991
L9896 85010
L9744 85010
" />
<path d="M10315 84801
L10239 84801
L10201 84820
L10182 84839
L10144 84896
L10125 84972
L10125 85125
L10144 85163
L10163 85182
L10201 85201
L10277 85201
L10315 85182
L10334 85163
L10353 85125
L10353 85029
L10334 84991
L10315 84972
L10277 84953
L10201 84953
L10163 84972
L10144 84991
L10125 85029
" />
<path d="M12696 92189
L12696 91789
L12849 91789
L12887 91808
L12906 91827
L12925 91865
L12925 91922
L12906 91960
L12887 91979
L12849 91998
L12696 91998
" />
<path d="M13287 91789
L13096 91789
L13077 91979
L13096 91960
L13134 91941
L13230 91941
L13268 91960
L13287 91979
L13306 92018
L13306 92113
L13287 92151
L13268 92170
L13230 92189
L13134 92189
L13096 92170
L13077 92151
" />
<path d="M9744 92189
L9744 91789
L9896 91789
L9934 91808
L9953 91827
L9972 91865
L9972 91922
L9953 91960
L9934 91979
L9896 91998
L9744 91998
" />
<path d="M10315 91922
L10315 92189
" />
<path d="M10220 91770
L10125 92056
L10372 92056
" />
<path d="M9734 106264
L9734 105864
L9963 106264
L9963 105864
" />
<path d="M10363 106264
L10134 106264
" />
<path d="M10248 106264
L10248 105864
L10210 105921
L10172 105959
L10134 105978
" />
<path d="M9744 99177
L9744 98777
L9896 98777
L9934 98796
L9953 98815
L9972 98853
L9972 98910
L9953 98949
L9934 98968
L9896 98987
L9744 98987
" />
<path d="M10125 98815
L10144 98796
L10182 98777
L10277 98777
L10315 98796
L10334 98815
L10353 98853
L10353 98891
L10334 98949
L10106 99177
L10353 99177
" />
<path d="M9734 81854
L9734 81454
L9963 81854
L9963 81454
" />
<path d="M10210 81626
L10172 81607
L10153 81588
L10134 81550
L10134 81531
L10153 81492
L10172 81473
L10210 81454
L10286 81454
L10325 81473
L10344 81492
L10363 81531
L10363 81550
L10344 81588
L10325 81607
L10286 81626
L10210 81626
L10172 81645
L10153 81664
L10134 81702
L10134 81778
L10153 81816
L10172 81835
L10210 81854
L10286 81854
L10325 81835
L10344 81816
L10363 81778
L10363 81702
L10344 81664
L10325 81645
L10286 81626
" />
<path d="M12687 88843
L12687 88443
L12915 88843
L12915 88443
" />
<path d="M13068 88443
L13334 88443
L13163 88843
" />
<path d="M9734 88843
L9734 88443
L9963 88843
L9963 88443
" />
<path d="M10325 88443
L10248 88443
L10210 88462
L10191 88481
L10153 88538
L10134 88614
L10134 88766
L10153 88804
L10172 88823
L10210 88843
L10286 88843
L10325 88823
L10344 88804
L10363 88766
L10363 88671
L10344 88633
L10325 88614
L10286 88595
L10210 88595
L10172 88614
L10153 88633
L10134 88671
" />
<path d="M12696 106264
L12696 105864
L12849 105864
L12887 105883
L12906 105902
L12925 105940
L12925 105997
L12906 106035
L12887 106054
L12849 106073
L12696 106073
" />
<path d="M13306 106264
L13077 106264
" />
<path d="M13192 106264
L13192 105864
L13154 105921
L13115 105959
L13077 105978
" />
<path d="M12687 95831
L12687 95431
L12915 95831
L12915 95431
" />
<path d="M13296 95431
L13106 95431
L13087 95621
L13106 95602
L13144 95583
L13239 95583
L13277 95602
L13296 95621
L13315 95659
L13315 95755
L13296 95793
L13277 95812
L13239 95831
L13144 95831
L13106 95812
L13087 95793
" />
<path d="M9734 95831
L9734 95431
L9963 95831
L9963 95431
" />
<path d="M10325 95564
L10325 95831
" />
<path d="M10229 95412
L10134 95697
L10382 95697
" />
<path d="M12687 102720
L12687 102320
L12915 102720
L12915 102320
" />
<path d="M13068 102320
L13315 102320
L13182 102473
L13239 102473
L13277 102492
L13296 102511
L13315 102549
L13315 102644
L13296 102682
L13277 102701
L13239 102720
L13125 102720
L13087 102701
L13068 102682
" />
<path d="M9734 102720
L9734 102320
L9963 102720
L9963 102320
" />
<path d="M10134 102359
L10153 102340
L10191 102320
L10286 102320
L10325 102340
L10344 102359
L10363 102397
L10363 102435
L10344 102492
L10115 102720
L10363 102720
" />
</g> 
</svg>
