<?xml version="1.0" standalone="no"?>
 <!DOCTYPE svg PUBLIC "-//W3C//DTD SVG 1.1//EN" 
 "http://www.w3.org/Graphics/SVG/1.1/DTD/svg11.dtd"> 
<svg xmlns="http://www.w3.org/2000/svg" version="1.1" 
    width="21.0007cm" height="29.7002cm" viewBox="0 0 82680 116930 ">
<title>SVG Picture created as Power distribution board-F_SilkS.svg date 2014/12/06 16:52:20 </title>
  <desc>Picture generated by PCBNEW </desc>
<g style="fill:#000000; fill-opacity:1;stroke:#000000; stroke-opacity:1;
stroke-linecap:round; stroke-linejoin:round; "
 transform="translate(0 0) scale(1 1)">
</g>
<g style="fill:#000000; fill-opacity:0.0; 
stroke:#000000; stroke-width:39.3701; stroke-opacity:1; 
stroke-linecap:round; stroke-linejoin:round;">
<path d="M11107 7724
L11136 7706
L11145 7687
L11154 7649
L11154 7593
L11145 7556
L11136 7537
L11117 7518
L11042 7518
L11042 7912
L11107 7912
L11126 7893
L11136 7874
L11145 7837
L11145 7799
L11136 7762
L11126 7743
L11107 7724
L11042 7724
" />
<path d="M11323 7518
L11323 7724
L11314 7762
L11295 7781
L11257 7781
L11239 7762
" />
<path d="M11323 7537
L11304 7518
L11257 7518
L11239 7537
L11229 7574
L11229 7612
L11239 7649
L11257 7668
L11304 7668
L11323 7687
" />
<path d="M11389 7781
L11464 7781
" />
<path d="M11417 7912
L11417 7574
L11426 7537
L11445 7518
L11464 7518
" />
<path d="M11501 7781
L11576 7781
" />
<path d="M11529 7912
L11529 7574
L11539 7537
L11557 7518
L11576 7518
" />
<path d="M11717 7537
L11698 7518
L11661 7518
L11642 7537
L11632 7574
L11632 7724
L11642 7762
L11661 7781
L11698 7781
L11717 7762
L11726 7724
L11726 7687
L11632 7649
" />
<path d="M11811 7518
L11811 7781
" />
<path d="M11811 7706
L11820 7743
L11829 7762
L11848 7781
L11867 7781
" />
<path d="M11914 7781
L11961 7518
" />
<path d="M12007 7781
L11961 7518
L11942 7424
L11932 7406
L11914 7387
" />
</g>
<g style="fill:#000000; fill-opacity:0.0; 
stroke:#000000; stroke-width:78.7402; stroke-opacity:1; 
stroke-linecap:round; stroke-linejoin:round;">
<circle cx="14905.5" cy="12993" r="508.865" /> 
</g>
<g style="fill:#000000; fill-opacity:0.0; 
stroke:#000000; stroke-width:118.11; stroke-opacity:1; 
stroke-linecap:round; stroke-linejoin:round;">
<path d="M14605 12993
L15205 12993
" />
<path d="M14617 19986
L15217 19986
" />
</g>
<g style="fill:#000000; fill-opacity:0.0; 
stroke:#000000; stroke-width:78.7402; stroke-opacity:1; 
stroke-linecap:round; stroke-linejoin:round;">
<circle cx="14917.3" cy="19985.1" r="508.865" /> 
<circle cx="14956.7" cy="33933.9" r="508.865" /> 
</g>
<g style="fill:#000000; fill-opacity:0.0; 
stroke:#000000; stroke-width:118.11; stroke-opacity:1; 
stroke-linecap:round; stroke-linejoin:round;">
<path d="M14656 33934
L15256 33934
" />
<path d="M14644 26970
L15244 26970
" />
</g>
<g style="fill:#000000; fill-opacity:0.0; 
stroke:#000000; stroke-width:78.7402; stroke-opacity:1; 
stroke-linecap:round; stroke-linejoin:round;">
<circle cx="14944.9" cy="26969.4" r="508.865" /> 
<circle cx="8015.75" cy="26989.1" r="508.865" /> 
</g>
<g style="fill:#000000; fill-opacity:0.0; 
stroke:#000000; stroke-width:118.11; stroke-opacity:1; 
stroke-linecap:round; stroke-linejoin:round;">
<path d="M7715 26989
L8315 26989
" />
<path d="M7727 33954
L8327 33954
" />
</g>
<g style="fill:#000000; fill-opacity:0.0; 
stroke:#000000; stroke-width:78.7402; stroke-opacity:1; 
stroke-linecap:round; stroke-linejoin:round;">
<circle cx="8027.56" cy="33953.6" r="508.865" /> 
<circle cx="7988.19" cy="20004.8" r="508.865" /> 
</g>
<g style="fill:#000000; fill-opacity:0.0; 
stroke:#000000; stroke-width:118.11; stroke-opacity:1; 
stroke-linecap:round; stroke-linejoin:round;">
<path d="M7688 20005
L8288 20005
" />
<path d="M7676 13013
L8276 13013
" />
</g>
<g style="fill:#000000; fill-opacity:0.0; 
stroke:#000000; stroke-width:78.7402; stroke-opacity:1; 
stroke-linecap:round; stroke-linejoin:round;">
<circle cx="7976.38" cy="13012.7" r="508.865" /> 
</g>
<g style="fill:#000000; fill-opacity:0.0; 
stroke:#000000; stroke-width:118.11; stroke-opacity:1; 
stroke-linecap:round; stroke-linejoin:round;">
<path d="M7731 41025
L8331 41025
" />
</g>
<g style="fill:#000000; fill-opacity:0.0; 
stroke:#000000; stroke-width:78.7402; stroke-opacity:1; 
stroke-linecap:round; stroke-linejoin:round;">
<circle cx="8027.56" cy="41024.5" r="505.426" /> 
<circle cx="7976.38" cy="16457.6" r="508.865" /> 
</g>
<g style="fill:#000000; fill-opacity:0.0; 
stroke:#000000; stroke-width:118.11; stroke-opacity:1; 
stroke-linecap:round; stroke-linejoin:round;">
<path d="M7676 16458
L8276 16458
" />
<path d="M7976 16158
L7976 16758
" />
<path d="M7688 23450
L8288 23450
" />
<path d="M7988 23150
L7988 23750
" />
</g>
<g style="fill:#000000; fill-opacity:0.0; 
stroke:#000000; stroke-width:78.7402; stroke-opacity:1; 
stroke-linecap:round; stroke-linejoin:round;">
<circle cx="7988.19" cy="23449.7" r="508.865" /> 
<circle cx="8027.56" cy="37398.5" r="508.865" /> 
</g>
<g style="fill:#000000; fill-opacity:0.0; 
stroke:#000000; stroke-width:118.11; stroke-opacity:1; 
stroke-linecap:round; stroke-linejoin:round;">
<path d="M7727 37399
L8327 37399
" />
<path d="M8027 37099
L8027 37699
" />
<path d="M7715 30434
L8315 30434
" />
<path d="M8015 30134
L8015 30734
" />
</g>
<g style="fill:#000000; fill-opacity:0.0; 
stroke:#000000; stroke-width:78.7402; stroke-opacity:1; 
stroke-linecap:round; stroke-linejoin:round;">
<circle cx="8015.75" cy="30433.9" r="508.865" /> 
<circle cx="15019.7" cy="41012.7" r="508.865" /> 
</g>
<g style="fill:#000000; fill-opacity:0.0; 
stroke:#000000; stroke-width:118.11; stroke-opacity:1; 
stroke-linecap:round; stroke-linejoin:round;">
<path d="M14719 41013
L15319 41013
" />
<path d="M15019 40713
L15019 41313
" />
</g>
<g style="fill:#000000; fill-opacity:0.0; 
stroke:#000000; stroke-width:78.7402; stroke-opacity:1; 
stroke-linecap:round; stroke-linejoin:round;">
<circle cx="14944.9" cy="30414.3" r="508.865" /> 
</g>
<g style="fill:#000000; fill-opacity:0.0; 
stroke:#000000; stroke-width:118.11; stroke-opacity:1; 
stroke-linecap:round; stroke-linejoin:round;">
<path d="M14644 30415
L15244 30415
" />
<path d="M14944 30115
L14944 30715
" />
<path d="M14656 37379
L15256 37379
" />
<path d="M14956 37079
L14956 37679
" />
</g>
<g style="fill:#000000; fill-opacity:0.0; 
stroke:#000000; stroke-width:78.7402; stroke-opacity:1; 
stroke-linecap:round; stroke-linejoin:round;">
<circle cx="14956.7" cy="37378.8" r="508.865" /> 
<circle cx="14917.3" cy="23430" r="508.865" /> 
</g>
<g style="fill:#000000; fill-opacity:0.0; 
stroke:#000000; stroke-width:118.11; stroke-opacity:1; 
stroke-linecap:round; stroke-linejoin:round;">
<path d="M14617 23430
L15217 23430
" />
<path d="M14917 23130
L14917 23730
" />
<path d="M14605 16438
L15205 16438
" />
<path d="M14905 16138
L14905 16738
" />
</g>
<g style="fill:#000000; fill-opacity:0.0; 
stroke:#000000; stroke-width:78.7402; stroke-opacity:1; 
stroke-linecap:round; stroke-linejoin:round;">
<circle cx="14905.5" cy="16437.9" r="508.865" /> 
<circle cx="12992.1" cy="7658.35" r="508.865" /> 
<circle cx="9996.06" cy="7658.35" r="505.426" /> 
</g>
<g style="fill:#000000; fill-opacity:0.0; 
stroke:#000000; stroke-width:118.11; stroke-opacity:1; 
stroke-linecap:round; stroke-linejoin:round;">
<path d="M9700 7659
L10299 7659
" />
<path d="M12692 7659
L13292 7659
" />
<path d="M12992 7359
L12992 7959
" />
</g>
<g style="fill:#000000; fill-opacity:0.0; 
stroke:#000000; stroke-width:150; stroke-opacity:1; 
stroke-linecap:round; stroke-linejoin:round;">
<path d="M12016 17414
L13984 17414
" />
<path d="M13984 17414
L13984 15446
" />
<path d="M13984 15446
L12016 15446
" />
<path d="M12016 15446
L12016 17414
" />
<path d="M12016 41914
L13984 41914
" />
<path d="M13984 41914
L13984 39946
" />
<path d="M13984 39946
L12016 39946
" />
<path d="M12016 39946
L12016 41914
" />
<path d="M12016 38414
L13984 38414
" />
<path d="M13984 38414
L13984 36446
" />
<path d="M13984 36446
L12016 36446
" />
<path d="M12016 36446
L12016 38414
" />
<path d="M9016 41914
L10984 41914
" />
<path d="M10984 41914
L10984 39946
" />
<path d="M10984 39946
L9016 39946
" />
<path d="M9016 39946
L9016 41914
" />
<path d="M12016 34914
L13984 34914
" />
<path d="M13984 34914
L13984 32946
" />
<path d="M13984 32946
L12016 32946
" />
<path d="M12016 32946
L12016 34914
" />
<path d="M9016 38414
L10984 38414
" />
<path d="M10984 38414
L10984 36446
" />
<path d="M10984 36446
L9016 36446
" />
<path d="M9016 36446
L9016 38414
" />
<path d="M12016 31414
L13984 31414
" />
<path d="M13984 31414
L13984 29446
" />
<path d="M13984 29446
L12016 29446
" />
<path d="M12016 29446
L12016 31414
" />
<path d="M9016 31414
L10984 31414
" />
<path d="M10984 31414
L10984 29446
" />
<path d="M10984 29446
L9016 29446
" />
<path d="M9016 29446
L9016 31414
" />
<path d="M12016 24414
L13984 24414
" />
<path d="M13984 24414
L13984 22446
" />
<path d="M13984 22446
L12016 22446
" />
<path d="M12016 22446
L12016 24414
" />
<path d="M9016 24414
L10984 24414
" />
<path d="M10984 24414
L10984 22446
" />
<path d="M10984 22446
L9016 22446
" />
<path d="M9016 22446
L9016 24414
" />
<path d="M9016 10414
L10984 10414
" />
<path d="M10984 10414
L10984 8446
" />
<path d="M10984 8446
L9016 8446
" />
<path d="M9016 8446
L9016 10414
" />
<path d="M9016 17414
L10984 17414
" />
<path d="M10984 17414
L10984 15446
" />
<path d="M10984 15446
L9016 15446
" />
<path d="M9016 15446
L9016 17414
" />
<path d="M9016 34914
L10984 34914
" />
<path d="M10984 34914
L10984 32946
" />
<path d="M10984 32946
L9016 32946
" />
<path d="M9016 32946
L9016 34914
" />
<path d="M12016 27914
L13984 27914
" />
<path d="M13984 27914
L13984 25946
" />
<path d="M13984 25946
L12016 25946
" />
<path d="M12016 25946
L12016 27914
" />
<path d="M9016 27914
L10984 27914
" />
<path d="M10984 27914
L10984 25946
" />
<path d="M10984 25946
L9016 25946
" />
<path d="M9016 25946
L9016 27914
" />
<path d="M12016 10414
L13984 10414
" />
<path d="M13984 10414
L13984 8446
" />
<path d="M13984 8446
L12016 8446
" />
<path d="M12016 8446
L12016 10414
" />
<path d="M12016 20914
L13984 20914
" />
<path d="M13984 20914
L13984 18946
" />
<path d="M13984 18946
L12016 18946
" />
<path d="M12016 18946
L12016 20914
" />
<path d="M9016 20914
L10984 20914
" />
<path d="M10984 20914
L10984 18946
" />
<path d="M10984 18946
L9016 18946
" />
<path d="M9016 18946
L9016 20914
" />
<path d="M12016 13914
L13984 13914
" />
<path d="M13984 13914
L13984 11946
" />
<path d="M13984 11946
L12016 11946
" />
<path d="M12016 11946
L12016 13914
" />
<path d="M9016 13914
L10984 13914
" />
<path d="M10984 13914
L10984 11946
" />
<path d="M10984 11946
L9016 11946
" />
<path d="M9016 11946
L9016 13914
" />
</g>
<g style="fill:#000000; fill-opacity:0.0; 
stroke:#000000; stroke-width:100; stroke-opacity:1; 
stroke-linecap:round; stroke-linejoin:round;">
<path d="M12696 17752
L12696 18152
L12849 18152
L12887 18133
L12906 18114
L12925 18076
L12925 18019
L12906 17980
L12887 17961
L12849 17942
L12696 17942
" />
<path d="M13058 18152
L13306 18152
L13173 17999
L13230 17999
L13268 17980
L13287 17961
L13306 17923
L13306 17828
L13287 17790
L13268 17771
L13230 17752
L13115 17752
L13077 17771
L13058 17790
" />
<path d="M12506 42260
L12506 42660
L12658 42660
L12696 42641
L12715 42622
L12734 42584
L12734 42526
L12715 42488
L12696 42469
L12658 42450
L12506 42450
" />
<path d="M13115 42260
L12887 42260
" />
<path d="M13001 42260
L13001 42660
L12963 42603
L12925 42564
L12887 42545
" />
<path d="M13363 42660
L13401 42660
L13439 42641
L13458 42622
L13477 42584
L13496 42507
L13496 42412
L13477 42336
L13458 42298
L13439 42279
L13401 42260
L13363 42260
L13325 42279
L13306 42298
L13287 42336
L13268 42412
L13268 42507
L13287 42584
L13306 42622
L13325 42641
L13363 42660
" />
<path d="M12696 38716
L12696 39116
L12849 39116
L12887 39097
L12906 39078
L12925 39040
L12925 38983
L12906 38945
L12887 38926
L12849 38907
L12696 38907
" />
<path d="M13115 38716
L13192 38716
L13230 38735
L13249 38755
L13287 38812
L13306 38888
L13306 39040
L13287 39078
L13268 39097
L13230 39116
L13154 39116
L13115 39097
L13096 39078
L13077 39040
L13077 38945
L13096 38907
L13115 38888
L13154 38869
L13230 38869
L13268 38888
L13287 38907
L13306 38945
" />
<path d="M9544 42260
L9544 42660
L9772 42260
L9772 42660
" />
<path d="M10172 42260
L9944 42260
" />
<path d="M10058 42260
L10058 42660
L10020 42603
L9982 42564
L9944 42545
" />
<path d="M10420 42660
L10458 42660
L10496 42641
L10515 42622
L10534 42584
L10553 42507
L10553 42412
L10534 42336
L10515 42298
L10496 42279
L10458 42260
L10420 42260
L10382 42279
L10363 42298
L10344 42336
L10325 42412
L10325 42507
L10344 42584
L10363 42622
L10382 42641
L10420 42660
" />
<path d="M12687 35075
L12687 35475
L12915 35075
L12915 35475
" />
<path d="M13125 35075
L13201 35075
L13239 35094
L13258 35113
L13296 35170
L13315 35246
L13315 35398
L13296 35437
L13277 35456
L13239 35475
L13163 35475
L13125 35456
L13106 35437
L13087 35398
L13087 35303
L13106 35265
L13125 35246
L13163 35227
L13239 35227
L13277 35246
L13296 35265
L13315 35303
" />
<path d="M9744 38716
L9744 39116
L9896 39116
L9934 39097
L9953 39078
L9972 39040
L9972 38983
L9953 38945
L9934 38926
L9896 38907
L9744 38907
" />
<path d="M10201 38945
L10163 38964
L10144 38983
L10125 39021
L10125 39040
L10144 39078
L10163 39097
L10201 39116
L10277 39116
L10315 39097
L10334 39078
L10353 39040
L10353 39021
L10334 38983
L10315 38964
L10277 38945
L10201 38945
L10163 38926
L10144 38907
L10125 38869
L10125 38793
L10144 38755
L10163 38735
L10201 38716
L10277 38716
L10315 38735
L10334 38755
L10353 38793
L10353 38869
L10334 38907
L10315 38926
L10277 38945
" />
<path d="M12696 31728
L12696 32128
L12849 32128
L12887 32109
L12906 32090
L12925 32052
L12925 31995
L12906 31957
L12887 31938
L12849 31919
L12696 31919
" />
<path d="M13058 32128
L13325 32128
L13154 31728
" />
<path d="M9744 31728
L9744 32128
L9896 32128
L9934 32109
L9953 32090
L9972 32052
L9972 31995
L9953 31957
L9934 31938
L9896 31919
L9744 31919
" />
<path d="M10315 32128
L10239 32128
L10201 32109
L10182 32090
L10144 32033
L10125 31957
L10125 31804
L10144 31766
L10163 31747
L10201 31728
L10277 31728
L10315 31747
L10334 31766
L10353 31804
L10353 31900
L10334 31938
L10315 31957
L10277 31976
L10201 31976
L10163 31957
L10144 31938
L10125 31900
" />
<path d="M12696 24740
L12696 25140
L12849 25140
L12887 25121
L12906 25102
L12925 25064
L12925 25007
L12906 24969
L12887 24950
L12849 24931
L12696 24931
" />
<path d="M13287 25140
L13096 25140
L13077 24950
L13096 24969
L13134 24988
L13230 24988
L13268 24969
L13287 24950
L13306 24911
L13306 24816
L13287 24778
L13268 24759
L13230 24740
L13134 24740
L13096 24759
L13077 24778
" />
<path d="M9744 24740
L9744 25140
L9896 25140
L9934 25121
L9953 25102
L9972 25064
L9972 25007
L9953 24969
L9934 24950
L9896 24931
L9744 24931
" />
<path d="M10315 25007
L10315 24740
" />
<path d="M10220 25159
L10125 24873
L10372 24873
" />
<path d="M9734 10665
L9734 11065
L9963 10665
L9963 11065
" />
<path d="M10363 10665
L10134 10665
" />
<path d="M10248 10665
L10248 11065
L10210 11008
L10172 10970
L10134 10951
" />
<path d="M9744 17752
L9744 18152
L9896 18152
L9934 18133
L9953 18114
L9972 18076
L9972 18019
L9953 17980
L9934 17961
L9896 17942
L9744 17942
" />
<path d="M10125 18114
L10144 18133
L10182 18152
L10277 18152
L10315 18133
L10334 18114
L10353 18076
L10353 18038
L10334 17980
L10106 17752
L10353 17752
" />
<path d="M9734 35075
L9734 35475
L9963 35075
L9963 35475
" />
<path d="M10210 35303
L10172 35322
L10153 35341
L10134 35379
L10134 35398
L10153 35437
L10172 35456
L10210 35475
L10286 35475
L10325 35456
L10344 35437
L10363 35398
L10363 35379
L10344 35341
L10325 35322
L10286 35303
L10210 35303
L10172 35284
L10153 35265
L10134 35227
L10134 35151
L10153 35113
L10172 35094
L10210 35075
L10286 35075
L10325 35094
L10344 35113
L10363 35151
L10363 35227
L10344 35265
L10325 35284
L10286 35303
" />
<path d="M12687 28086
L12687 28486
L12915 28086
L12915 28486
" />
<path d="M13068 28486
L13334 28486
L13163 28086
" />
<path d="M9734 28086
L9734 28486
L9963 28086
L9963 28486
" />
<path d="M10325 28486
L10248 28486
L10210 28467
L10191 28448
L10153 28391
L10134 28315
L10134 28163
L10153 28125
L10172 28106
L10210 28086
L10286 28086
L10325 28106
L10344 28125
L10363 28163
L10363 28258
L10344 28296
L10325 28315
L10286 28334
L10210 28334
L10172 28315
L10153 28296
L10134 28258
" />
<path d="M12696 10665
L12696 11065
L12849 11065
L12887 11046
L12906 11027
L12925 10989
L12925 10932
L12906 10894
L12887 10875
L12849 10856
L12696 10856
" />
<path d="M13306 10665
L13077 10665
" />
<path d="M13192 10665
L13192 11065
L13154 11008
L13115 10970
L13077 10951
" />
<path d="M12687 21098
L12687 21498
L12915 21098
L12915 21498
" />
<path d="M13296 21498
L13106 21498
L13087 21308
L13106 21327
L13144 21346
L13239 21346
L13277 21327
L13296 21308
L13315 21270
L13315 21174
L13296 21136
L13277 21117
L13239 21098
L13144 21098
L13106 21117
L13087 21136
" />
<path d="M9734 21098
L9734 21498
L9963 21098
L9963 21498
" />
<path d="M10325 21365
L10325 21098
" />
<path d="M10229 21517
L10134 21232
L10382 21232
" />
<path d="M12687 14209
L12687 14609
L12915 14209
L12915 14609
" />
<path d="M13068 14609
L13315 14609
L13182 14456
L13239 14456
L13277 14437
L13296 14418
L13315 14380
L13315 14285
L13296 14247
L13277 14228
L13239 14209
L13125 14209
L13087 14228
L13068 14247
" />
<path d="M9734 14209
L9734 14609
L9963 14209
L9963 14609
" />
<path d="M10134 14570
L10153 14589
L10191 14609
L10286 14609
L10325 14589
L10344 14570
L10363 14532
L10363 14494
L10344 14437
L10115 14209
L10363 14209
" />
</g> 
</svg>
