<?xml version="1.0" standalone="no"?>
 <!DOCTYPE svg PUBLIC "-//W3C//DTD SVG 1.1//EN" 
 "http://www.w3.org/Graphics/SVG/1.1/DTD/svg11.dtd"> 
<svg xmlns="http://www.w3.org/2000/svg" version="1.1" 
    width="21.0007cm" height="29.7002cm" viewBox="0 0 82680 116930 ">
<title>SVG Picture created as Power distribution board-Edge_Cuts.svg date 2014/12/06 18:29:39 </title>
  <desc>Picture generated by PCBNEW </desc>
<g style="fill:#000000; fill-opacity:1;stroke:#000000; stroke-opacity:1;
stroke-linecap:round; stroke-linejoin:round; "
 transform="translate(0 0) scale(1 1)">
</g>
<g style="fill:#000000; fill-opacity:0.0; 
stroke:#000000; stroke-width:59.0551; stroke-opacity:1; 
stroke-linecap:round; stroke-linejoin:round;">
<path d="M7500 73500
L17500 73500
" />
<path d="M6500 110000
L6500 74000
" />
<path d="M17500 110500
L7000 110500
" />
<path d="M18000 110000
L18000 108500
" />
<path d="M18000 74000
L18000 110000
" />
<path d="M6500 110000 A500 500 0.0 0 0 7000 110500 " />
<path d="M17500 110500 A500 500 0.0 0 0 18000 110000 " />
<path d="M18000 74000 A500 500 0.0 0 0 17500 73500 " />
<path d="M7000 73500 A500 500 0.0 0 0 6500 74000 " />
</g> 
</svg>
