<?xml version="1.0" standalone="no"?>
 <!DOCTYPE svg PUBLIC "-//W3C//DTD SVG 1.1//EN" 
 "http://www.w3.org/Graphics/SVG/1.1/DTD/svg11.dtd"> 
<svg xmlns="http://www.w3.org/2000/svg" version="1.1" 
    width="4.2545cm" height="9.86536cm" viewBox="0 0 16750 38840 ">
<title>SVG Picture created as Power distribution board-F_Cu.svg date 2014/12/06 18:50:46 </title>
  <desc>Picture generated by PCBNEW </desc>
<g style="fill:#000000; fill-opacity:1;stroke:#000000; stroke-opacity:1;
stroke-linecap:round; stroke-linejoin:round; "
 transform="translate(0 0) scale(1 1)">
</g>
<g style="fill:#000000; fill-opacity:0.0; 
stroke:#000000; stroke-width:39.3701; stroke-opacity:1; 
stroke-linecap:round; stroke-linejoin:round;">
</g>
<g style="fill:#000000; fill-opacity:1.0; 
stroke:#000000; stroke-width:39.3701; stroke-opacity:1; 
stroke-linecap:round; stroke-linejoin:round;">
<polyline style="fill-rule:evenodd;"
points="2749,33742
2749,35303
4309,35303
4309,33742
2749,33742
" /> 
<polyline style="fill-rule:evenodd;"
points="5749,9242
5749,10803
7309,10803
7309,9242
5749,9242
" /> 
<polyline style="fill-rule:evenodd;"
points="5749,33742
5749,35303
7309,35303
7309,33742
5749,33742
" /> 
<polyline style="fill-rule:evenodd;"
points="5749,30242
5749,31803
7309,31803
7309,30242
5749,30242
" /> 
<polyline style="fill-rule:evenodd;"
points="5749,26742
5749,28303
7309,28303
7309,26742
5749,26742
" /> 
<polyline style="fill-rule:evenodd;"
points="2749,30242
2749,31803
4309,31803
4309,30242
2749,30242
" /> 
<polyline style="fill-rule:evenodd;"
points="5749,23242
5749,24803
7309,24803
7309,23242
5749,23242
" /> 
<polyline style="fill-rule:evenodd;"
points="2749,23242
2749,24803
4309,24803
4309,23242
2749,23242
" /> 
<polyline style="fill-rule:evenodd;"
points="5749,16242
5749,17803
7309,17803
7309,16242
5749,16242
" /> 
<polyline style="fill-rule:evenodd;"
points="2749,16242
2749,17803
4309,17803
4309,16242
2749,16242
" /> 
<polyline style="fill-rule:evenodd;"
points="2749,2242
2749,3803
4309,3803
4309,2242
2749,2242
" /> 
<polyline style="fill-rule:evenodd;"
points="2749,9242
2749,10803
4309,10803
4309,9242
2749,9242
" /> 
<polyline style="fill-rule:evenodd;"
points="2749,26742
2749,28303
4309,28303
4309,26742
2749,26742
" /> 
<polyline style="fill-rule:evenodd;"
points="5749,19742
5749,21303
7309,21303
7309,19742
5749,19742
" /> 
<polyline style="fill-rule:evenodd;"
points="2749,19742
2749,21303
4309,21303
4309,19742
2749,19742
" /> 
<polyline style="fill-rule:evenodd;"
points="5749,2242
5749,3803
7309,3803
7309,2242
5749,2242
" /> 
<polyline style="fill-rule:evenodd;"
points="5749,12742
5749,14303
7309,14303
7309,12742
5749,12742
" /> 
<polyline style="fill-rule:evenodd;"
points="2749,12742
2749,14303
4309,14303
4309,12742
2749,12742
" /> 
<polyline style="fill-rule:evenodd;"
points="5749,5742
5749,7303
7309,7303
7309,5742
5749,5742
" /> 
<polyline style="fill-rule:evenodd;"
points="2749,5742
2749,7303
4309,7303
4309,5742
2749,5742
" /> 
</g>
<g style="fill:#000000; fill-opacity:1.0; 
stroke:#000000; stroke-width:1181.1; stroke-opacity:1; 
stroke-linecap:round; stroke-linejoin:round;">
<path d="M6529 31023
L6529 34523
" />
<path d="M3529 31023
L6529 31023
" />
<path d="M6529 31023
L9529 31023
" />
<path d="M3529 24023
L6529 24023
" />
<path d="M6529 24023
L9529 24023
" />
<path d="M3529 17023
L6529 17023
" />
<path d="M6529 17023
L9529 17023
" />
<path d="M3529 10023
L6529 10023
" />
<path d="M6529 10023
L9529 10023
" />
<path d="M6529 3023
L9529 3023
" />
<path d="M9529 3023
L9529 10023
" />
<path d="M9529 10023
L9529 17023
" />
<path d="M9529 17023
L9529 24023
" />
<path d="M9529 24023
L9529 31023
" />
<path d="M3529 27523
L1529 27523
" />
<path d="M3529 20523
L1529 20523
" />
<path d="M3529 13523
L1529 13523
" />
<path d="M3529 6523
L1529 6523
" />
<path d="M1529 6523
L1529 13523
" />
<path d="M1529 34523
L3529 34523
" />
<path d="M1529 27523
L1529 34523
" />
<path d="M1529 20523
L1529 27523
" />
<path d="M1529 13523
L1529 20523
" />
<path d="M3529 27523
L6529 27523
" />
<path d="M3529 20523
L6529 20523
" />
<path d="M3529 13523
L6529 13523
" />
<path d="M3529 3023
L3529 6523
" />
<path d="M3529 6523
L6529 6523
" />
</g>
<g style="fill:#000000; fill-opacity:1.0; 
stroke:#000000; stroke-width:39.3701; stroke-opacity:1; 
stroke-linecap:round; stroke-linejoin:round;">
<polyline style="fill-rule:evenodd;"
points="10970,922
10943,789
10871,680
10763,608
10630,582
10572,582
10572,3023
10572,10023
10572,17023
10572,24023
10572,31023
10493,31422
10267,31760
9928,31986
9529,32066
7718,32066
7713,32079
7586,32206
7572,32212
7572,33333
7585,33339
7713,33466
7782,33632
7782,33812
7782,35412
7713,35579
7586,35706
7419,35775
7239,35775
5639,35775
5473,35707
5345,35579
5276,35413
5276,35233
5276,33633
5345,33466
5472,33339
5486,33333
5486,32212
5473,32207
5345,32079
5340,32066
4718,32066
4713,32079
4588,32204
4588,33774
4588,35271
4588,35374
4549,35470
4476,35542
4380,35582
3635,35582
3570,35517
3570,34564
4523,34564
4588,34628
4588,35271
4588,33774
4588,34417
4523,34482
3570,34482
3570,33528
3635,33464
4380,33463
4476,33503
4549,33576
4588,33671
4588,33774
4588,32204
4586,32206
4419,32275
4239,32275
3488,32275
3488,33528
3488,34482
3488,34564
3488,35517
3423,35582
2678,35582
2582,35542
2510,35470
2470,35374
2470,35271
2470,34628
2535,34564
3488,34564
3488,34482
2535,34482
2470,34417
2470,33774
2470,33671
2510,33576
2582,33503
2678,33463
3423,33464
3488,33528
3488,32275
2639,32275
2473,32207
2345,32079
2276,31913
2276,31733
2276,30133
2345,29966
2472,29839
2639,29770
2819,29770
4419,29770
4585,29839
4713,29966
4718,29979
5340,29979
5345,29966
5472,29839
5639,29770
5819,29770
7419,29770
7585,29839
7713,29966
7718,29979
8486,29979
8486,25066
7718,25066
7713,25079
7588,25204
7588,26774
7588,28271
7588,28374
7549,28470
7476,28542
7380,28582
6635,28582
6570,28517
6570,27564
7523,27564
7588,27628
7588,28271
7588,26774
7588,27417
7523,27482
6570,27482
6570,26528
6635,26464
7380,26463
7476,26503
7549,26576
7588,26671
7588,26774
7588,25204
7586,25206
7419,25275
7239,25275
6488,25275
6488,26528
6488,27482
6488,27564
6488,28517
6423,28582
5678,28582
5582,28542
5510,28470
5470,28374
5470,28271
5470,27628
5535,27564
6488,27564
6488,27482
5535,27482
5470,27417
5470,26774
5470,26671
5510,26576
5582,26503
5678,26463
6423,26464
6488,26528
6488,25275
5639,25275
5473,25207
5345,25079
5340,25066
4718,25066
4713,25079
4588,25204
4588,26774
4588,28271
4588,28374
4549,28470
4476,28542
4380,28582
3635,28582
3570,28517
3570,27564
4523,27564
4588,27628
4588,28271
4588,26774
4588,27417
4523,27482
3570,27482
3570,26528
3635,26464
4380,26463
4476,26503
4549,26576
4588,26671
4588,26774
4588,25204
4586,25206
4419,25275
4239,25275
3488,25275
3488,26528
3488,27482
3488,27564
3488,28517
3423,28582
2678,28582
2582,28542
2510,28470
2470,28374
2470,28271
2470,27628
2535,27564
3488,27564
3488,27482
2535,27482
2470,27417
2470,26774
2470,26671
2510,26576
2582,26503
2678,26463
3423,26464
3488,26528
3488,25275
2639,25275
2473,25207
2345,25079
2276,24913
2276,24733
2276,23133
2345,22966
2472,22839
2639,22770
2819,22770
4419,22770
4585,22839
4713,22966
4718,22979
5340,22979
5345,22966
5472,22839
5639,22770
5819,22770
7419,22770
7585,22839
7713,22966
7718,22979
8486,22979
8486,18066
7718,18066
7713,18079
7588,18204
7588,19774
7588,21271
7588,21374
7549,21470
7476,21542
7380,21582
6635,21582
6570,21517
6570,20564
7523,20564
7588,20628
7588,21271
7588,19774
7588,20417
7523,20482
6570,20482
6570,19528
6635,19464
7380,19463
7476,19503
7549,19576
7588,19671
7588,19774
7588,18204
7586,18206
7419,18275
7239,18275
6488,18275
6488,19528
6488,20482
6488,20564
6488,21517
6423,21582
5678,21582
5582,21542
5510,21470
5470,21374
5470,21271
5470,20628
5535,20564
6488,20564
6488,20482
5535,20482
5470,20417
5470,19774
5470,19671
5510,19576
5582,19503
5678,19463
6423,19464
6488,19528
6488,18275
5639,18275
5473,18207
5345,18079
5340,18066
4718,18066
4713,18079
4588,18204
4588,19774
4588,21271
4588,21374
4549,21470
4476,21542
4380,21582
3635,21582
3570,21517
3570,20564
4523,20564
4588,20628
4588,21271
4588,19774
4588,20417
4523,20482
3570,20482
3570,19528
3635,19464
4380,19463
4476,19503
4549,19576
4588,19671
4588,19774
4588,18204
4586,18206
4419,18275
4239,18275
3488,18275
3488,19528
3488,20482
3488,20564
3488,21517
3423,21582
2678,21582
2582,21542
2510,21470
2470,21374
2470,21271
2470,20628
2535,20564
3488,20564
3488,20482
2535,20482
2470,20417
2470,19774
2470,19671
2510,19576
2582,19503
2678,19463
3423,19464
3488,19528
3488,18275
2639,18275
2473,18207
2345,18079
2276,17913
2276,17733
2276,16133
2345,15966
2472,15839
2639,15770
2819,15770
4419,15770
4585,15839
4713,15966
4718,15979
5340,15979
5345,15966
5472,15839
5639,15770
5819,15770
7419,15770
7585,15839
7713,15966
7718,15979
8486,15979
8486,11066
7718,11066
7713,11079
7588,11204
7588,12774
7588,14271
7588,14374
7549,14470
7476,14542
7380,14582
6635,14582
6570,14517
6570,13564
7523,13564
7588,13628
7588,14271
7588,12774
7588,13417
7523,13482
6570,13482
6570,12528
6635,12464
7380,12463
7476,12503
7549,12576
7588,12671
7588,12774
7588,11204
7586,11206
7419,11275
7239,11275
6488,11275
6488,12528
6488,13482
6488,13564
6488,14517
6423,14582
5678,14582
5582,14542
5510,14470
5470,14374
5470,14271
5470,13628
5535,13564
6488,13564
6488,13482
5535,13482
5470,13417
5470,12774
5470,12671
5510,12576
5582,12503
5678,12463
6423,12464
6488,12528
6488,11275
5639,11275
5473,11207
5345,11079
5340,11066
4718,11066
4713,11079
4588,11204
4588,12774
4588,14271
4588,14374
4549,14470
4476,14542
4380,14582
3635,14582
3570,14517
3570,13564
4523,13564
4588,13628
4588,14271
4588,12774
4588,13417
4523,13482
3570,13482
3570,12528
3635,12464
4380,12463
4476,12503
4549,12576
4588,12671
4588,12774
4588,11204
4586,11206
4419,11275
4239,11275
3488,11275
3488,12528
3488,13482
3488,13564
3488,14517
3423,14582
2678,14582
2582,14542
2510,14470
2470,14374
2470,14271
2470,13628
2535,13564
3488,13564
3488,13482
2535,13482
2470,13417
2470,12774
2470,12671
2510,12576
2582,12503
2678,12463
3423,12464
3488,12528
3488,11275
2639,11275
2473,11207
2345,11079
2276,10913
2276,10733
2276,9133
2345,8966
2472,8839
2639,8770
2819,8770
4419,8770
4585,8839
4713,8966
4718,8979
5340,8979
5345,8966
5472,8839
5639,8770
5819,8770
7419,8770
7585,8839
7713,8966
7718,8979
8486,8979
8486,4066
7718,4066
7713,4079
7588,4204
7588,5774
7588,7271
7588,7374
7549,7470
7476,7542
7380,7582
6635,7582
6570,7517
6570,6564
7523,6564
7588,6628
7588,7271
7588,5774
7588,6417
7523,6482
6570,6482
6570,5528
6635,5464
7380,5463
7476,5503
7549,5576
7588,5671
7588,5774
7588,4204
7586,4206
7419,4275
7239,4275
6488,4275
6488,5528
6488,6482
6488,6564
6488,7517
6423,7582
5678,7582
5582,7542
5510,7470
5470,7374
5470,7271
5470,6628
5535,6564
6488,6564
6488,6482
5535,6482
5470,6417
5470,5774
5470,5671
5510,5576
5582,5503
5678,5463
6423,5464
6488,5528
6488,4275
5639,4275
5473,4207
5345,4079
5276,3913
5276,3733
5276,2133
5345,1966
5472,1839
5639,1770
5819,1770
7419,1770
7585,1839
7713,1966
7718,1979
9529,1979
9928,2059
10267,2285
10493,2623
10572,3023
10572,582
4588,582
4588,2274
4588,3771
4588,5774
4588,7271
4588,7374
4549,7470
4476,7542
4380,7582
3635,7582
3570,7517
3570,6564
4523,6564
4588,6628
4588,7271
4588,5774
4588,6417
4523,6482
3570,6482
3570,5528
3635,5464
4380,5463
4476,5503
4549,5576
4588,5671
4588,5774
4588,3771
4588,3874
4549,3970
4476,4042
4380,4082
3635,4082
3570,4017
3570,3064
4523,3064
4588,3128
4588,3771
4588,2274
4588,2917
4523,2982
3570,2982
3570,2028
3635,1964
4380,1963
4476,2003
4549,2076
4588,2171
4588,2274
4588,582
3488,582
3488,2028
3488,2982
3488,3064
3488,4017
3488,5528
3488,6482
3488,6564
3488,7517
3423,7582
2678,7582
2582,7542
2510,7470
2470,7374
2470,7271
2470,6628
2535,6564
3488,6564
3488,6482
2535,6482
2470,6417
2470,5774
2470,5671
2510,5576
2582,5503
2678,5463
3423,5464
3488,5528
3488,4017
3423,4082
2678,4082
2582,4042
2510,3970
2470,3874
2470,3771
2470,3128
2535,3064
3488,3064
3488,2982
2535,2982
2470,2917
2470,2274
2470,2171
2510,2076
2582,2003
2678,1963
3423,1964
3488,2028
3488,582
929,582
795,608
687,680
615,789
588,922
588,36123
615,36256
687,36365
795,36437
929,36464
10630,36464
10763,36437
10871,36365
10943,36256
10970,36123
10970,922
" /> 
</g>
<g style="fill:#000000; fill-opacity:0.0; 
stroke:#000000; stroke-width:118.11; stroke-opacity:1; 
stroke-linecap:round; stroke-linejoin:round;">
<polyline fill="none;"
points="10970,922
10943,789
10871,680
10763,608
10630,582
10572,582
10572,3023
10572,10023
10572,17023
10572,24023
10572,31023
10493,31422
10267,31760
9928,31986
9529,32066
7718,32066
7713,32079
7586,32206
7572,32212
7572,33333
7585,33339
7713,33466
7782,33632
7782,33812
7782,35412
7713,35579
7586,35706
7419,35775
7239,35775
5639,35775
5473,35707
5345,35579
5276,35413
5276,35233
5276,33633
5345,33466
5472,33339
5486,33333
5486,32212
5473,32207
5345,32079
5340,32066
4718,32066
4713,32079
4588,32204
4588,33774
4588,35271
4588,35374
4549,35470
4476,35542
4380,35582
3635,35582
3570,35517
3570,34564
4523,34564
4588,34628
4588,35271
4588,33774
4588,34417
4523,34482
3570,34482
3570,33528
3635,33464
4380,33463
4476,33503
4549,33576
4588,33671
4588,33774
4588,32204
4586,32206
4419,32275
4239,32275
3488,32275
3488,33528
3488,34482
3488,34564
3488,35517
3423,35582
2678,35582
2582,35542
2510,35470
2470,35374
2470,35271
2470,34628
2535,34564
3488,34564
3488,34482
2535,34482
2470,34417
2470,33774
2470,33671
2510,33576
2582,33503
2678,33463
3423,33464
3488,33528
3488,32275
2639,32275
2473,32207
2345,32079
2276,31913
2276,31733
2276,30133
2345,29966
2472,29839
2639,29770
2819,29770
4419,29770
4585,29839
4713,29966
4718,29979
5340,29979
5345,29966
5472,29839
5639,29770
5819,29770
7419,29770
7585,29839
7713,29966
7718,29979
8486,29979
8486,25066
7718,25066
7713,25079
7588,25204
7588,26774
7588,28271
7588,28374
7549,28470
7476,28542
7380,28582
6635,28582
6570,28517
6570,27564
7523,27564
7588,27628
7588,28271
7588,26774
7588,27417
7523,27482
6570,27482
6570,26528
6635,26464
7380,26463
7476,26503
7549,26576
7588,26671
7588,26774
7588,25204
7586,25206
7419,25275
7239,25275
6488,25275
6488,26528
6488,27482
6488,27564
6488,28517
6423,28582
5678,28582
5582,28542
5510,28470
5470,28374
5470,28271
5470,27628
5535,27564
6488,27564
6488,27482
5535,27482
5470,27417
5470,26774
5470,26671
5510,26576
5582,26503
5678,26463
6423,26464
6488,26528
6488,25275
5639,25275
5473,25207
5345,25079
5340,25066
4718,25066
4713,25079
4588,25204
4588,26774
4588,28271
4588,28374
4549,28470
4476,28542
4380,28582
3635,28582
3570,28517
3570,27564
4523,27564
4588,27628
4588,28271
4588,26774
4588,27417
4523,27482
3570,27482
3570,26528
3635,26464
4380,26463
4476,26503
4549,26576
4588,26671
4588,26774
4588,25204
4586,25206
4419,25275
4239,25275
3488,25275
3488,26528
3488,27482
3488,27564
3488,28517
3423,28582
2678,28582
2582,28542
2510,28470
2470,28374
2470,28271
2470,27628
2535,27564
3488,27564
3488,27482
2535,27482
2470,27417
2470,26774
2470,26671
2510,26576
2582,26503
2678,26463
3423,26464
3488,26528
3488,25275
2639,25275
2473,25207
2345,25079
2276,24913
2276,24733
2276,23133
2345,22966
2472,22839
2639,22770
2819,22770
4419,22770
4585,22839
4713,22966
4718,22979
5340,22979
5345,22966
5472,22839
5639,22770
5819,22770
7419,22770
7585,22839
7713,22966
7718,22979
8486,22979
8486,18066
7718,18066
7713,18079
7588,18204
7588,19774
7588,21271
7588,21374
7549,21470
7476,21542
7380,21582
6635,21582
6570,21517
6570,20564
7523,20564
7588,20628
7588,21271
7588,19774
7588,20417
7523,20482
6570,20482
6570,19528
6635,19464
7380,19463
7476,19503
7549,19576
7588,19671
7588,19774
7588,18204
7586,18206
7419,18275
7239,18275
6488,18275
6488,19528
6488,20482
6488,20564
6488,21517
6423,21582
5678,21582
5582,21542
5510,21470
5470,21374
5470,21271
5470,20628
5535,20564
6488,20564
6488,20482
5535,20482
5470,20417
5470,19774
5470,19671
5510,19576
5582,19503
5678,19463
6423,19464
6488,19528
6488,18275
5639,18275
5473,18207
5345,18079
5340,18066
4718,18066
4713,18079
4588,18204
4588,19774
4588,21271
4588,21374
4549,21470
4476,21542
4380,21582
3635,21582
3570,21517
3570,20564
4523,20564
4588,20628
4588,21271
4588,19774
4588,20417
4523,20482
3570,20482
3570,19528
3635,19464
4380,19463
4476,19503
4549,19576
4588,19671
4588,19774
4588,18204
4586,18206
4419,18275
4239,18275
3488,18275
3488,19528
3488,20482
3488,20564
3488,21517
3423,21582
2678,21582
2582,21542
2510,21470
2470,21374
2470,21271
2470,20628
2535,20564
3488,20564
3488,20482
2535,20482
2470,20417
2470,19774
2470,19671
2510,19576
2582,19503
2678,19463
3423,19464
3488,19528
3488,18275
2639,18275
2473,18207
2345,18079
2276,17913
2276,17733
2276,16133
2345,15966
2472,15839
2639,15770
2819,15770
4419,15770
4585,15839
4713,15966
4718,15979
5340,15979
5345,15966
5472,15839
5639,15770
5819,15770
7419,15770
7585,15839
7713,15966
7718,15979
8486,15979
8486,11066
7718,11066
7713,11079
7588,11204
7588,12774
7588,14271
7588,14374
7549,14470
7476,14542
7380,14582
6635,14582
6570,14517
6570,13564
7523,13564
7588,13628
7588,14271
7588,12774
7588,13417
7523,13482
6570,13482
6570,12528
6635,12464
7380,12463
7476,12503
7549,12576
7588,12671
7588,12774
7588,11204
7586,11206
7419,11275
7239,11275
6488,11275
6488,12528
6488,13482
6488,13564
6488,14517
6423,14582
5678,14582
5582,14542
5510,14470
5470,14374
5470,14271
5470,13628
5535,13564
6488,13564
6488,13482
5535,13482
5470,13417
5470,12774
5470,12671
5510,12576
5582,12503
5678,12463
6423,12464
6488,12528
6488,11275
5639,11275
5473,11207
5345,11079
5340,11066
4718,11066
4713,11079
4588,11204
4588,12774
4588,14271
4588,14374
4549,14470
4476,14542
4380,14582
3635,14582
3570,14517
3570,13564
4523,13564
4588,13628
4588,14271
4588,12774
4588,13417
4523,13482
3570,13482
3570,12528
3635,12464
4380,12463
4476,12503
4549,12576
4588,12671
4588,12774
4588,11204
4586,11206
4419,11275
4239,11275
3488,11275
3488,12528
3488,13482
3488,13564
3488,14517
3423,14582
2678,14582
2582,14542
2510,14470
2470,14374
2470,14271
2470,13628
2535,13564
3488,13564
3488,13482
2535,13482
2470,13417
2470,12774
2470,12671
2510,12576
2582,12503
2678,12463
3423,12464
3488,12528
3488,11275
2639,11275
2473,11207
2345,11079
2276,10913
2276,10733
2276,9133
2345,8966
2472,8839
2639,8770
2819,8770
4419,8770
4585,8839
4713,8966
4718,8979
5340,8979
5345,8966
5472,8839
5639,8770
5819,8770
7419,8770
7585,8839
7713,8966
7718,8979
8486,8979
8486,4066
7718,4066
7713,4079
7588,4204
7588,5774
7588,7271
7588,7374
7549,7470
7476,7542
7380,7582
6635,7582
6570,7517
6570,6564
7523,6564
7588,6628
7588,7271
7588,5774
7588,6417
7523,6482
6570,6482
6570,5528
6635,5464
7380,5463
7476,5503
7549,5576
7588,5671
7588,5774
7588,4204
7586,4206
7419,4275
7239,4275
6488,4275
6488,5528
6488,6482
6488,6564
6488,7517
6423,7582
5678,7582
5582,7542
5510,7470
5470,7374
5470,7271
5470,6628
5535,6564
6488,6564
6488,6482
5535,6482
5470,6417
5470,5774
5470,5671
5510,5576
5582,5503
5678,5463
6423,5464
6488,5528
6488,4275
5639,4275
5473,4207
5345,4079
5276,3913
5276,3733
5276,2133
5345,1966
5472,1839
5639,1770
5819,1770
7419,1770
7585,1839
7713,1966
7718,1979
9529,1979
9928,2059
10267,2285
10493,2623
10572,3023
10572,582
4588,582
4588,2274
4588,3771
4588,5774
4588,7271
4588,7374
4549,7470
4476,7542
4380,7582
3635,7582
3570,7517
3570,6564
4523,6564
4588,6628
4588,7271
4588,5774
4588,6417
4523,6482
3570,6482
3570,5528
3635,5464
4380,5463
4476,5503
4549,5576
4588,5671
4588,5774
4588,3771
4588,3874
4549,3970
4476,4042
4380,4082
3635,4082
3570,4017
3570,3064
4523,3064
4588,3128
4588,3771
4588,2274
4588,2917
4523,2982
3570,2982
3570,2028
3635,1964
4380,1963
4476,2003
4549,2076
4588,2171
4588,2274
4588,582
3488,582
3488,2028
3488,2982
3488,3064
3488,4017
3488,5528
3488,6482
3488,6564
3488,7517
3423,7582
2678,7582
2582,7542
2510,7470
2470,7374
2470,7271
2470,6628
2535,6564
3488,6564
3488,6482
2535,6482
2470,6417
2470,5774
2470,5671
2510,5576
2582,5503
2678,5463
3423,5464
3488,5528
3488,4017
3423,4082
2678,4082
2582,4042
2510,3970
2470,3874
2470,3771
2470,3128
2535,3064
3488,3064
3488,2982
2535,2982
2470,2917
2470,2274
2470,2171
2510,2076
2582,2003
2678,1963
3423,1964
3488,2028
3488,582
929,582
795,608
687,680
615,789
588,922
588,36123
615,36256
687,36365
795,36437
929,36464
10630,36464
10763,36437
10871,36365
10943,36256
10970,36123
10970,922
" /> 
</g> 
</svg>
