<?xml version="1.0" standalone="no"?>
 <!DOCTYPE svg PUBLIC "-//W3C//DTD SVG 1.1//EN" 
 "http://www.w3.org/Graphics/SVG/1.1/DTD/svg11.dtd"> 
<svg xmlns="http://www.w3.org/2000/svg" version="1.1" 
    width="21.0007cm" height="29.7002cm" viewBox="0 0 82680 116930 ">
<title>SVG Picture created as Power distribution board-F_SilkS.svg date 2014/12/06 16:06:05 </title>
  <desc>Picture generated by PCBNEW </desc>
<g style="fill:#000000; fill-opacity:1;stroke:#000000; stroke-opacity:1;
stroke-linecap:round; stroke-linejoin:round; "
 transform="translate(0 0) scale(1 1)">
</g>
<g style="fill:#000000; fill-opacity:0.0; 
stroke:#000000; stroke-width:150; stroke-opacity:1; 
stroke-linecap:round; stroke-linejoin:round;">
<path d="M12016 17414
L13984 17414
" />
<path d="M13984 17414
L13984 15446
" />
<path d="M13984 15446
L12016 15446
" />
<path d="M12016 15446
L12016 17414
" />
<path d="M12016 41914
L13984 41914
" />
<path d="M13984 41914
L13984 39946
" />
<path d="M13984 39946
L12016 39946
" />
<path d="M12016 39946
L12016 41914
" />
<path d="M12016 38414
L13984 38414
" />
<path d="M13984 38414
L13984 36446
" />
<path d="M13984 36446
L12016 36446
" />
<path d="M12016 36446
L12016 38414
" />
<path d="M9016 41914
L10984 41914
" />
<path d="M10984 41914
L10984 39946
" />
<path d="M10984 39946
L9016 39946
" />
<path d="M9016 39946
L9016 41914
" />
<path d="M12016 34914
L13984 34914
" />
<path d="M13984 34914
L13984 32946
" />
<path d="M13984 32946
L12016 32946
" />
<path d="M12016 32946
L12016 34914
" />
<path d="M9016 38414
L10984 38414
" />
<path d="M10984 38414
L10984 36446
" />
<path d="M10984 36446
L9016 36446
" />
<path d="M9016 36446
L9016 38414
" />
<path d="M12016 31414
L13984 31414
" />
<path d="M13984 31414
L13984 29446
" />
<path d="M13984 29446
L12016 29446
" />
<path d="M12016 29446
L12016 31414
" />
<path d="M9016 31414
L10984 31414
" />
<path d="M10984 31414
L10984 29446
" />
<path d="M10984 29446
L9016 29446
" />
<path d="M9016 29446
L9016 31414
" />
<path d="M12016 24414
L13984 24414
" />
<path d="M13984 24414
L13984 22446
" />
<path d="M13984 22446
L12016 22446
" />
<path d="M12016 22446
L12016 24414
" />
<path d="M9016 24414
L10984 24414
" />
<path d="M10984 24414
L10984 22446
" />
<path d="M10984 22446
L9016 22446
" />
<path d="M9016 22446
L9016 24414
" />
<path d="M9016 10414
L10984 10414
" />
<path d="M10984 10414
L10984 8446
" />
<path d="M10984 8446
L9016 8446
" />
<path d="M9016 8446
L9016 10414
" />
<path d="M9016 17414
L10984 17414
" />
<path d="M10984 17414
L10984 15446
" />
<path d="M10984 15446
L9016 15446
" />
<path d="M9016 15446
L9016 17414
" />
<path d="M9016 34914
L10984 34914
" />
<path d="M10984 34914
L10984 32946
" />
<path d="M10984 32946
L9016 32946
" />
<path d="M9016 32946
L9016 34914
" />
<path d="M12016 27914
L13984 27914
" />
<path d="M13984 27914
L13984 25946
" />
<path d="M13984 25946
L12016 25946
" />
<path d="M12016 25946
L12016 27914
" />
<path d="M9016 27914
L10984 27914
" />
<path d="M10984 27914
L10984 25946
" />
<path d="M10984 25946
L9016 25946
" />
<path d="M9016 25946
L9016 27914
" />
<path d="M12016 10414
L13984 10414
" />
<path d="M13984 10414
L13984 8446
" />
<path d="M13984 8446
L12016 8446
" />
<path d="M12016 8446
L12016 10414
" />
<path d="M12016 20914
L13984 20914
" />
<path d="M13984 20914
L13984 18946
" />
<path d="M13984 18946
L12016 18946
" />
<path d="M12016 18946
L12016 20914
" />
<path d="M9016 20914
L10984 20914
" />
<path d="M10984 20914
L10984 18946
" />
<path d="M10984 18946
L9016 18946
" />
<path d="M9016 18946
L9016 20914
" />
<path d="M12016 13914
L13984 13914
" />
<path d="M13984 13914
L13984 11946
" />
<path d="M13984 11946
L12016 11946
" />
<path d="M12016 11946
L12016 13914
" />
<path d="M9016 13914
L10984 13914
" />
<path d="M10984 13914
L10984 11946
" />
<path d="M10984 11946
L9016 11946
" />
<path d="M9016 11946
L9016 13914
" />
</g>
<g style="fill:#000000; fill-opacity:0.0; 
stroke:#000000; stroke-width:100; stroke-opacity:1; 
stroke-linecap:round; stroke-linejoin:round;">
<path d="M14204 16268
L14204 16668
L14357 16668
L14395 16649
L14414 16630
L14433 16591
L14433 16534
L14414 16496
L14395 16477
L14357 16458
L14204 16458
" />
<path d="M14566 16668
L14814 16668
L14680 16515
L14738 16515
L14776 16496
L14795 16477
L14814 16439
L14814 16344
L14795 16306
L14776 16287
L14738 16268
L14623 16268
L14585 16287
L14566 16306
" />
<path d="M14014 40768
L14014 41168
L14166 41168
L14204 41149
L14223 41130
L14242 41091
L14242 41034
L14223 40996
L14204 40977
L14166 40958
L14014 40958
" />
<path d="M14623 40768
L14395 40768
" />
<path d="M14509 40768
L14509 41168
L14471 41110
L14433 41072
L14395 41053
" />
<path d="M14871 41168
L14909 41168
L14947 41149
L14966 41130
L14985 41091
L15004 41015
L15004 40920
L14985 40844
L14966 40806
L14947 40787
L14909 40768
L14871 40768
L14833 40787
L14814 40806
L14795 40844
L14776 40920
L14776 41015
L14795 41091
L14814 41130
L14833 41149
L14871 41168
" />
<path d="M14204 37268
L14204 37668
L14357 37668
L14395 37649
L14414 37630
L14433 37591
L14433 37534
L14414 37496
L14395 37477
L14357 37458
L14204 37458
" />
<path d="M14623 37268
L14700 37268
L14738 37287
L14757 37306
L14795 37363
L14814 37439
L14814 37591
L14795 37630
L14776 37649
L14738 37668
L14661 37668
L14623 37649
L14604 37630
L14585 37591
L14585 37496
L14604 37458
L14623 37439
L14661 37420
L14738 37420
L14776 37439
L14795 37458
L14814 37496
" />
<path d="M8004 40768
L8004 41168
L8233 40768
L8233 41168
" />
<path d="M8633 40768
L8404 40768
" />
<path d="M8519 40768
L8519 41168
L8480 41110
L8442 41072
L8404 41053
" />
<path d="M8880 41168
L8919 41168
L8957 41149
L8976 41130
L8995 41091
L9014 41015
L9014 40920
L8995 40844
L8976 40806
L8957 40787
L8919 40768
L8880 40768
L8842 40787
L8823 40806
L8804 40844
L8785 40920
L8785 41015
L8804 41091
L8823 41130
L8842 41149
L8880 41168
" />
<path d="M14195 33768
L14195 34168
L14423 33768
L14423 34168
" />
<path d="M14633 33768
L14709 33768
L14747 33787
L14766 33806
L14804 33863
L14823 33939
L14823 34091
L14804 34130
L14785 34149
L14747 34168
L14671 34168
L14633 34149
L14614 34130
L14595 34091
L14595 33996
L14614 33958
L14633 33939
L14671 33920
L14747 33920
L14785 33939
L14804 33958
L14823 33996
" />
<path d="M8204 37268
L8204 37668
L8357 37668
L8395 37649
L8414 37630
L8433 37591
L8433 37534
L8414 37496
L8395 37477
L8357 37458
L8204 37458
" />
<path d="M8661 37496
L8623 37515
L8604 37534
L8585 37572
L8585 37591
L8604 37630
L8623 37649
L8661 37668
L8738 37668
L8776 37649
L8795 37630
L8814 37591
L8814 37572
L8795 37534
L8776 37515
L8738 37496
L8661 37496
L8623 37477
L8604 37458
L8585 37420
L8585 37344
L8604 37306
L8623 37287
L8661 37268
L8738 37268
L8776 37287
L8795 37306
L8814 37344
L8814 37420
L8795 37458
L8776 37477
L8738 37496
" />
<path d="M14204 30268
L14204 30668
L14357 30668
L14395 30649
L14414 30630
L14433 30591
L14433 30534
L14414 30496
L14395 30477
L14357 30458
L14204 30458
" />
<path d="M14566 30668
L14833 30668
L14661 30268
" />
<path d="M8204 30268
L8204 30668
L8357 30668
L8395 30649
L8414 30630
L8433 30591
L8433 30534
L8414 30496
L8395 30477
L8357 30458
L8204 30458
" />
<path d="M8776 30668
L8700 30668
L8661 30649
L8642 30630
L8604 30572
L8585 30496
L8585 30344
L8604 30306
L8623 30287
L8661 30268
L8738 30268
L8776 30287
L8795 30306
L8814 30344
L8814 30439
L8795 30477
L8776 30496
L8738 30515
L8661 30515
L8623 30496
L8604 30477
L8585 30439
" />
<path d="M14204 23268
L14204 23668
L14357 23668
L14395 23649
L14414 23630
L14433 23591
L14433 23534
L14414 23496
L14395 23477
L14357 23458
L14204 23458
" />
<path d="M14795 23668
L14604 23668
L14585 23477
L14604 23496
L14642 23515
L14738 23515
L14776 23496
L14795 23477
L14814 23439
L14814 23344
L14795 23306
L14776 23287
L14738 23268
L14642 23268
L14604 23287
L14585 23306
" />
<path d="M8204 23268
L8204 23668
L8357 23668
L8395 23649
L8414 23630
L8433 23591
L8433 23534
L8414 23496
L8395 23477
L8357 23458
L8204 23458
" />
<path d="M8776 23534
L8776 23268
" />
<path d="M8680 23687
L8585 23401
L8833 23401
" />
<path d="M8195 9268
L8195 9668
L8423 9268
L8423 9668
" />
<path d="M8823 9268
L8595 9268
" />
<path d="M8709 9268
L8709 9668
L8671 9610
L8633 9572
L8595 9553
" />
<path d="M8204 16268
L8204 16668
L8357 16668
L8395 16649
L8414 16630
L8433 16591
L8433 16534
L8414 16496
L8395 16477
L8357 16458
L8204 16458
" />
<path d="M8585 16630
L8604 16649
L8642 16668
L8738 16668
L8776 16649
L8795 16630
L8814 16591
L8814 16553
L8795 16496
L8566 16268
L8814 16268
" />
<path d="M8195 33768
L8195 34168
L8423 33768
L8423 34168
" />
<path d="M8671 33996
L8633 34015
L8614 34034
L8595 34072
L8595 34091
L8614 34130
L8633 34149
L8671 34168
L8747 34168
L8785 34149
L8804 34130
L8823 34091
L8823 34072
L8804 34034
L8785 34015
L8747 33996
L8671 33996
L8633 33977
L8614 33958
L8595 33920
L8595 33844
L8614 33806
L8633 33787
L8671 33768
L8747 33768
L8785 33787
L8804 33806
L8823 33844
L8823 33920
L8804 33958
L8785 33977
L8747 33996
" />
<path d="M14195 26768
L14195 27168
L14423 26768
L14423 27168
" />
<path d="M14576 27168
L14842 27168
L14671 26768
" />
<path d="M8195 26768
L8195 27168
L8423 26768
L8423 27168
" />
<path d="M8785 27168
L8709 27168
L8671 27149
L8652 27130
L8614 27072
L8595 26996
L8595 26844
L8614 26806
L8633 26787
L8671 26768
L8747 26768
L8785 26787
L8804 26806
L8823 26844
L8823 26939
L8804 26977
L8785 26996
L8747 27015
L8671 27015
L8633 26996
L8614 26977
L8595 26939
" />
<path d="M14204 9268
L14204 9668
L14357 9668
L14395 9649
L14414 9630
L14433 9591
L14433 9534
L14414 9496
L14395 9477
L14357 9458
L14204 9458
" />
<path d="M14814 9268
L14585 9268
" />
<path d="M14700 9268
L14700 9668
L14661 9610
L14623 9572
L14585 9553
" />
<path d="M14195 19768
L14195 20168
L14423 19768
L14423 20168
" />
<path d="M14804 20168
L14614 20168
L14595 19977
L14614 19996
L14652 20015
L14747 20015
L14785 19996
L14804 19977
L14823 19939
L14823 19844
L14804 19806
L14785 19787
L14747 19768
L14652 19768
L14614 19787
L14595 19806
" />
<path d="M8195 19768
L8195 20168
L8423 19768
L8423 20168
" />
<path d="M8785 20034
L8785 19768
" />
<path d="M8690 20187
L8595 19901
L8842 19901
" />
<path d="M14195 12768
L14195 13168
L14423 12768
L14423 13168
" />
<path d="M14576 13168
L14823 13168
L14690 13015
L14747 13015
L14785 12996
L14804 12977
L14823 12939
L14823 12844
L14804 12806
L14785 12787
L14747 12768
L14633 12768
L14595 12787
L14576 12806
" />
<path d="M8195 12768
L8195 13168
L8423 12768
L8423 13168
" />
<path d="M8595 13130
L8614 13149
L8652 13168
L8747 13168
L8785 13149
L8804 13130
L8823 13091
L8823 13053
L8804 12996
L8576 12768
L8823 12768
" />
</g> 
</svg>
