<?xml version="1.0" standalone="no"?>
 <!DOCTYPE svg PUBLIC "-//W3C//DTD SVG 1.1//EN" 
 "http://www.w3.org/Graphics/SVG/1.1/DTD/svg11.dtd"> 
<svg xmlns="http://www.w3.org/2000/svg" version="1.1" 
    width="21.0007cm" height="29.7002cm" viewBox="0 0 82680 116930 ">
<title>SVG Picture created as Power distribution board-Dwgs_User.svg date 2014/12/06 16:06:05 </title>
  <desc>Picture generated by PCBNEW </desc>
<g style="fill:#000000; fill-opacity:1;stroke:#000000; stroke-opacity:1;
stroke-linecap:round; stroke-linejoin:round; "
 transform="translate(0 0) scale(1 1)">
</g>
<g style="fill:#000000; fill-opacity:0.0; 
stroke:#000000; stroke-width:98.4252; stroke-opacity:1; 
stroke-linecap:round; stroke-linejoin:round;">
<path d="M21756 10705
L21494 10705
" />
<path d="M21906 10799
L21625 10893
L21625 10649
" />
<path d="M21512 10480
L21494 10480
L21456 10499
L21437 10518
" />
<path d="M21887 10237
L21887 10199
L21869 10162
L21850 10143
L21812 10124
L21737 10105
L21644 10105
L21569 10124
L21531 10143
L21512 10162
L21494 10199
L21494 10237
L21512 10274
L21531 10293
L21569 10312
L21644 10330
L21737 10330
L21812 10312
L21850 10293
L21869 10274
L21887 10237
" />
<path d="M21887 9862
L21887 9824
L21869 9787
L21850 9768
L21812 9749
L21737 9730
L21644 9730
L21569 9749
L21531 9768
L21512 9787
L21494 9824
L21494 9862
L21512 9899
L21531 9918
L21569 9937
L21644 9955
L21737 9955
L21812 9937
L21850 9918
L21869 9899
L21887 9862
" />
<path d="M21887 9487
L21887 9449
L21869 9412
L21850 9393
L21812 9374
L21737 9355
L21644 9355
L21569 9374
L21531 9393
L21512 9412
L21494 9449
L21494 9487
L21512 9524
L21531 9543
L21569 9562
L21644 9580
L21737 9580
L21812 9562
L21850 9543
L21869 9524
L21887 9487
" />
<path d="M21494 8887
L21756 8887
" />
<path d="M21719 8887
L21737 8868
L21756 8831
L21756 8774
L21737 8737
L21700 8718
L21494 8718
" />
<path d="M21700 8718
L21737 8699
L21756 8662
L21756 8606
L21737 8568
L21700 8549
L21494 8549
" />
<path d="M21494 8362
L21756 8362
" />
<path d="M21719 8362
L21737 8343
L21756 8306
L21756 8249
L21737 8212
L21700 8193
L21494 8193
" />
<path d="M21700 8193
L21737 8174
L21756 8137
L21756 8081
L21737 8043
L21700 8024
L21494 8024
" />
<path d="M21259 10237
L21259 8662
" />
<path d="M13779 10237
L22047 10237
" />
<path d="M13779 8662
L22047 8662
" />
<path d="M21259 8662
L21028 9105
" />
<path d="M21259 8662
L21490 9105
" />
<path d="M21259 10237
L21028 9793
" />
<path d="M21259 10237
L21490 9793
" />
<path d="M19234 26523
L19234 26448
L19253 26411
L19271 26392
L19328 26354
L19403 26336
L19553 26336
L19590 26354
L19609 26373
L19628 26411
L19628 26486
L19609 26523
L19590 26542
L19553 26561
L19459 26561
L19421 26542
L19403 26523
L19384 26486
L19384 26411
L19403 26373
L19421 26354
L19459 26336
" />
<path d="M19628 26204
L19628 25961
L19478 26092
L19478 26036
L19459 25998
L19440 25979
L19403 25961
L19309 25961
L19271 25979
L19253 25998
L19234 26036
L19234 26148
L19253 26186
L19271 26204
" />
<path d="M19253 25773
L19234 25773
L19196 25792
L19178 25811
" />
<path d="M19234 25586
L19234 25511
L19253 25473
L19271 25454
L19328 25417
L19403 25398
L19553 25398
L19590 25417
L19609 25436
L19628 25473
L19628 25548
L19609 25586
L19590 25604
L19553 25623
L19459 25623
L19421 25604
L19403 25586
L19384 25548
L19384 25473
L19403 25436
L19421 25417
L19459 25398
" />
<path d="M19459 25173
L19478 25211
L19496 25229
L19534 25248
L19553 25248
L19590 25229
L19609 25211
L19628 25173
L19628 25098
L19609 25061
L19590 25042
L19553 25023
L19534 25023
L19496 25042
L19478 25061
L19459 25098
L19459 25173
L19440 25211
L19421 25229
L19384 25248
L19309 25248
L19271 25229
L19253 25211
L19234 25173
L19234 25098
L19253 25061
L19271 25042
L19309 25023
L19384 25023
L19421 25042
L19440 25061
L19459 25098
" />
<path d="M19628 24780
L19628 24742
L19609 24705
L19590 24686
L19553 24667
L19478 24648
L19384 24648
L19309 24667
L19271 24686
L19253 24705
L19234 24742
L19234 24780
L19253 24817
L19271 24836
L19309 24855
L19384 24873
L19478 24873
L19553 24855
L19590 24836
L19609 24817
L19628 24780
" />
<path d="M19234 24180
L19496 24180
" />
<path d="M19459 24180
L19478 24161
L19496 24123
L19496 24067
L19478 24030
L19440 24011
L19234 24011
" />
<path d="M19440 24011
L19478 23992
L19496 23955
L19496 23898
L19478 23861
L19440 23842
L19234 23842
" />
<path d="M19234 23655
L19496 23655
" />
<path d="M19459 23655
L19478 23636
L19496 23598
L19496 23542
L19478 23505
L19440 23486
L19234 23486
" />
<path d="M19440 23486
L19478 23467
L19496 23430
L19496 23373
L19478 23336
L19440 23317
L19234 23317
" />
<path d="M18999 43430
L18999 6430
" />
<path d="M18000 43430
L19787 43430
" />
<path d="M18000 6430
L19787 6430
" />
<path d="M18999 6430
L18769 6873
" />
<path d="M18999 6430
L19230 6873
" />
<path d="M18999 43430
L18769 42986
" />
<path d="M18999 43430
L19230 42986
" />
<path d="M10618 45020
L10637 45039
L10675 45058
L10768 45058
L10806 45039
L10825 45020
L10843 44983
L10843 44945
L10825 44889
L10600 44664
L10843 44664
" />
<path d="M11031 44664
L11106 44664
L11143 44683
L11162 44701
L11200 44758
L11218 44833
L11218 44983
L11200 45020
L11181 45039
L11143 45058
L11068 45058
L11031 45039
L11012 45020
L10993 44983
L10993 44889
L11012 44851
L11031 44833
L11068 44814
L11143 44814
L11181 44833
L11200 44851
L11218 44889
" />
<path d="M11406 44683
L11406 44664
L11387 44626
L11368 44608
" />
<path d="M11556 45020
L11575 45039
L11612 45058
L11706 45058
L11743 45039
L11762 45020
L11781 44983
L11781 44945
L11762 44889
L11537 44664
L11781 44664
" />
<path d="M12156 44664
L11931 44664
" />
<path d="M12043 44664
L12043 45058
L12006 45001
L11968 44964
L11931 44945
" />
<path d="M12399 45058
L12437 45058
L12474 45039
L12493 45020
L12512 44983
L12531 44908
L12531 44814
L12512 44739
L12493 44701
L12474 44683
L12437 44664
L12399 44664
L12362 44683
L12343 44701
L12324 44739
L12306 44814
L12306 44908
L12324 44983
L12343 45020
L12362 45039
L12399 45058
" />
<path d="M12999 44664
L12999 44926
" />
<path d="M12999 44889
L13018 44908
L13056 44926
L13112 44926
L13149 44908
L13168 44870
L13168 44664
" />
<path d="M13168 44870
L13187 44908
L13224 44926
L13281 44926
L13318 44908
L13337 44870
L13337 44664
" />
<path d="M13524 44664
L13524 44926
" />
<path d="M13524 44889
L13543 44908
L13581 44926
L13637 44926
L13674 44908
L13693 44870
L13693 44664
" />
<path d="M13693 44870
L13712 44908
L13749 44926
L13806 44926
L13843 44908
L13862 44870
L13862 44664
" />
<path d="M18000 44429
L6500 44429
" />
<path d="M18000 42930
L18000 45217
" />
<path d="M6500 42930
L6500 45217
" />
<path d="M6500 44429
L6943 44660
" />
<path d="M6500 44429
L6943 44199
" />
<path d="M18000 44429
L17556 44660
" />
<path d="M18000 44429
L17556 44199
" />
</g> 
</svg>
