<?xml version="1.0" standalone="no"?>
 <!DOCTYPE svg PUBLIC "-//W3C//DTD SVG 1.1//EN" 
 "http://www.w3.org/Graphics/SVG/1.1/DTD/svg11.dtd"> 
<svg xmlns="http://www.w3.org/2000/svg" version="1.1" 
    width="21.0007cm" height="29.7002cm" viewBox="0 0 82680 116930 ">
<title>SVG Picture created as Power distribution board-F_Cu.svg date 2014/12/06 16:06:05 </title>
  <desc>Picture generated by PCBNEW </desc>
<g style="fill:#000000; fill-opacity:1;stroke:#000000; stroke-opacity:1;
stroke-linecap:round; stroke-linejoin:round; "
 transform="translate(0 0) scale(1 1)">
</g>
<g style="fill:#000000; fill-opacity:0.0; 
stroke:#000000; stroke-width:59.0551; stroke-opacity:1; 
stroke-linecap:round; stroke-linejoin:round;">
</g>
<g style="fill:#000000; fill-opacity:1.0; 
stroke:#000000; stroke-width:59.0551; stroke-opacity:1; 
stroke-linecap:round; stroke-linejoin:round;">
<polyline style="fill-rule:evenodd;"
points="12229,15659
12229,17200
13770,17200
13770,15659
12229,15659
" /> 
<polyline style="fill-rule:evenodd;"
points="12229,40159
12229,41700
13770,41700
13770,40159
12229,40159
" /> 
<polyline style="fill-rule:evenodd;"
points="12229,36659
12229,38200
13770,38200
13770,36659
12229,36659
" /> 
<polyline style="fill-rule:evenodd;"
points="9229,40159
9229,41700
10770,41700
10770,40159
9229,40159
" /> 
<polyline style="fill-rule:evenodd;"
points="12229,33159
12229,34700
13770,34700
13770,33159
12229,33159
" /> 
<polyline style="fill-rule:evenodd;"
points="9229,36659
9229,38200
10770,38200
10770,36659
9229,36659
" /> 
<polyline style="fill-rule:evenodd;"
points="12229,29659
12229,31200
13770,31200
13770,29659
12229,29659
" /> 
<polyline style="fill-rule:evenodd;"
points="9229,29659
9229,31200
10770,31200
10770,29659
9229,29659
" /> 
<polyline style="fill-rule:evenodd;"
points="12229,22659
12229,24200
13770,24200
13770,22659
12229,22659
" /> 
<polyline style="fill-rule:evenodd;"
points="9229,22659
9229,24200
10770,24200
10770,22659
9229,22659
" /> 
<polyline style="fill-rule:evenodd;"
points="9229,8659
9229,10200
10770,10200
10770,8659
9229,8659
" /> 
<polyline style="fill-rule:evenodd;"
points="9229,15659
9229,17200
10770,17200
10770,15659
9229,15659
" /> 
<polyline style="fill-rule:evenodd;"
points="9229,33159
9229,34700
10770,34700
10770,33159
9229,33159
" /> 
<polyline style="fill-rule:evenodd;"
points="12229,26159
12229,27700
13770,27700
13770,26159
12229,26159
" /> 
<polyline style="fill-rule:evenodd;"
points="9229,26159
9229,27700
10770,27700
10770,26159
9229,26159
" /> 
<polyline style="fill-rule:evenodd;"
points="12229,8659
12229,10200
13770,10200
13770,8659
12229,8659
" /> 
<polyline style="fill-rule:evenodd;"
points="12229,19159
12229,20700
13770,20700
13770,19159
12229,19159
" /> 
<polyline style="fill-rule:evenodd;"
points="9229,19159
9229,20700
10770,20700
10770,19159
9229,19159
" /> 
<polyline style="fill-rule:evenodd;"
points="12229,12159
12229,13700
13770,13700
13770,12159
12229,12159
" /> 
<polyline style="fill-rule:evenodd;"
points="9229,12159
9229,13700
10770,13700
10770,12159
9229,12159
" /> 
</g>
<g style="fill:#000000; fill-opacity:1.0; 
stroke:#000000; stroke-width:1181.1; stroke-opacity:1; 
stroke-linecap:round; stroke-linejoin:round;">
<path d="M13000 37430
L13000 40930
" />
<path d="M10000 37430
L13000 37430
" />
<path d="M13000 37430
L16000 37430
" />
<path d="M10000 30430
L13000 30430
" />
<path d="M13000 30430
L16000 30430
" />
<path d="M10000 23430
L13000 23430
" />
<path d="M13000 23430
L16000 23430
" />
<path d="M10000 16430
L13000 16430
" />
<path d="M13000 16430
L16000 16430
" />
<path d="M13000 9430
L16000 9430
" />
<path d="M16000 9430
L16000 16430
" />
<path d="M16000 16430
L16000 23430
" />
<path d="M16000 23430
L16000 30430
" />
<path d="M16000 30430
L16000 37430
" />
<path d="M10000 33930
L8000 33930
" />
<path d="M10000 26930
L8000 26930
" />
<path d="M10000 19930
L8000 19930
" />
<path d="M10000 12930
L8000 12930
" />
<path d="M8000 12930
L8000 19930
" />
<path d="M8000 40930
L10000 40930
" />
<path d="M8000 33930
L8000 40930
" />
<path d="M8000 26930
L8000 33930
" />
<path d="M8000 19930
L8000 26930
" />
<path d="M10000 33930
L13000 33930
" />
<path d="M10000 26930
L13000 26930
" />
<path d="M10000 19930
L13000 19930
" />
<path d="M10000 9430
L10000 12930
" />
<path d="M10000 12930
L13000 12930
" />
</g>
<g style="fill:#000000; fill-opacity:1.0; 
stroke:#000000; stroke-width:59.0551; stroke-opacity:1; 
stroke-linecap:round; stroke-linejoin:round;">
<polyline style="fill-rule:evenodd;"
points="17440,7329
17414,7196
17342,7087
17233,7015
17100,6989
17043,6989
17043,9430
17043,16430
17043,23430
17043,30430
17043,37430
16963,37829
16737,38167
16399,38393
16000,38473
14189,38473
14184,38486
14056,38613
14043,38619
14043,39740
14056,39745
14183,39873
14252,40039
14252,40219
14252,41819
14184,41986
14056,42113
13890,42182
13710,42182
12110,42182
11943,42114
11816,41986
11747,41820
11747,41640
11747,40040
11815,39873
11943,39746
11956,39740
11956,38619
11943,38614
11816,38486
11810,38473
11189,38473
11184,38486
11059,38611
11059,40181
11059,41678
11059,41781
11019,41876
10946,41949
10851,41989
10105,41989
10040,41924
10040,40970
10994,40970
11059,41035
11059,41678
11059,40181
11059,40824
10994,40889
10040,40889
10040,39935
10105,39870
10851,39870
10946,39910
11019,39983
11059,40078
11059,40181
11059,38611
11056,38613
10890,38682
10710,38682
9959,38682
9959,39935
9959,40889
9959,40970
9959,41924
9894,41989
9148,41989
9053,41949
8980,41876
8940,41781
8940,41678
8940,41035
9005,40970
9959,40970
9959,40889
9005,40889
8940,40824
8940,40181
8940,40078
8980,39983
9053,39910
9148,39870
9894,39870
9959,39935
9959,38682
9110,38682
8943,38614
8816,38486
8747,38320
8747,38140
8747,36540
8815,36373
8943,36246
9109,36177
9289,36177
10889,36177
11056,36245
11183,36373
11189,36386
11810,36386
11815,36373
11943,36246
12109,36177
12289,36177
13889,36177
14056,36245
14183,36373
14189,36386
14956,36386
14956,31473
14189,31473
14184,31486
14059,31611
14059,33181
14059,34678
14059,34781
14019,34876
13946,34949
13851,34989
13105,34989
13040,34924
13040,33970
13994,33970
14059,34035
14059,34678
14059,33181
14059,33824
13994,33889
13040,33889
13040,32935
13105,32870
13851,32870
13946,32910
14019,32983
14059,33078
14059,33181
14059,31611
14056,31613
13890,31682
13710,31682
12959,31682
12959,32935
12959,33889
12959,33970
12959,34924
12894,34989
12148,34989
12053,34949
11980,34876
11940,34781
11940,34678
11940,34035
12005,33970
12959,33970
12959,33889
12005,33889
11940,33824
11940,33181
11940,33078
11980,32983
12053,32910
12148,32870
12894,32870
12959,32935
12959,31682
12110,31682
11943,31614
11816,31486
11810,31473
11189,31473
11184,31486
11059,31611
11059,33181
11059,34678
11059,34781
11019,34876
10946,34949
10851,34989
10105,34989
10040,34924
10040,33970
10994,33970
11059,34035
11059,34678
11059,33181
11059,33824
10994,33889
10040,33889
10040,32935
10105,32870
10851,32870
10946,32910
11019,32983
11059,33078
11059,33181
11059,31611
11056,31613
10890,31682
10710,31682
9959,31682
9959,32935
9959,33889
9959,33970
9959,34924
9894,34989
9148,34989
9053,34949
8980,34876
8940,34781
8940,34678
8940,34035
9005,33970
9959,33970
9959,33889
9005,33889
8940,33824
8940,33181
8940,33078
8980,32983
9053,32910
9148,32870
9894,32870
9959,32935
9959,31682
9110,31682
8943,31614
8816,31486
8747,31320
8747,31140
8747,29540
8815,29373
8943,29246
9109,29177
9289,29177
10889,29177
11056,29245
11183,29373
11189,29386
11810,29386
11815,29373
11943,29246
12109,29177
12289,29177
13889,29177
14056,29245
14183,29373
14189,29386
14956,29386
14956,24473
14189,24473
14184,24486
14059,24611
14059,26181
14059,27678
14059,27781
14019,27876
13946,27949
13851,27989
13105,27989
13040,27924
13040,26970
13994,26970
14059,27035
14059,27678
14059,26181
14059,26824
13994,26889
13040,26889
13040,25935
13105,25870
13851,25870
13946,25910
14019,25983
14059,26078
14059,26181
14059,24611
14056,24613
13890,24682
13710,24682
12959,24682
12959,25935
12959,26889
12959,26970
12959,27924
12894,27989
12148,27989
12053,27949
11980,27876
11940,27781
11940,27678
11940,27035
12005,26970
12959,26970
12959,26889
12005,26889
11940,26824
11940,26181
11940,26078
11980,25983
12053,25910
12148,25870
12894,25870
12959,25935
12959,24682
12110,24682
11943,24614
11816,24486
11810,24473
11189,24473
11184,24486
11059,24611
11059,26181
11059,27678
11059,27781
11019,27876
10946,27949
10851,27989
10105,27989
10040,27924
10040,26970
10994,26970
11059,27035
11059,27678
11059,26181
11059,26824
10994,26889
10040,26889
10040,25935
10105,25870
10851,25870
10946,25910
11019,25983
11059,26078
11059,26181
11059,24611
11056,24613
10890,24682
10710,24682
9959,24682
9959,25935
9959,26889
9959,26970
9959,27924
9894,27989
9148,27989
9053,27949
8980,27876
8940,27781
8940,27678
8940,27035
9005,26970
9959,26970
9959,26889
9005,26889
8940,26824
8940,26181
8940,26078
8980,25983
9053,25910
9148,25870
9894,25870
9959,25935
9959,24682
9110,24682
8943,24614
8816,24486
8747,24320
8747,24140
8747,22540
8815,22373
8943,22246
9109,22177
9289,22177
10889,22177
11056,22245
11183,22373
11189,22386
11810,22386
11815,22373
11943,22246
12109,22177
12289,22177
13889,22177
14056,22245
14183,22373
14189,22386
14956,22386
14956,17473
14189,17473
14184,17486
14059,17611
14059,19181
14059,20678
14059,20781
14019,20876
13946,20949
13851,20989
13105,20989
13040,20924
13040,19970
13994,19970
14059,20035
14059,20678
14059,19181
14059,19824
13994,19889
13040,19889
13040,18935
13105,18870
13851,18870
13946,18910
14019,18983
14059,19078
14059,19181
14059,17611
14056,17613
13890,17682
13710,17682
12959,17682
12959,18935
12959,19889
12959,19970
12959,20924
12894,20989
12148,20989
12053,20949
11980,20876
11940,20781
11940,20678
11940,20035
12005,19970
12959,19970
12959,19889
12005,19889
11940,19824
11940,19181
11940,19078
11980,18983
12053,18910
12148,18870
12894,18870
12959,18935
12959,17682
12110,17682
11943,17614
11816,17486
11810,17473
11189,17473
11184,17486
11059,17611
11059,19181
11059,20678
11059,20781
11019,20876
10946,20949
10851,20989
10105,20989
10040,20924
10040,19970
10994,19970
11059,20035
11059,20678
11059,19181
11059,19824
10994,19889
10040,19889
10040,18935
10105,18870
10851,18870
10946,18910
11019,18983
11059,19078
11059,19181
11059,17611
11056,17613
10890,17682
10710,17682
9959,17682
9959,18935
9959,19889
9959,19970
9959,20924
9894,20989
9148,20989
9053,20949
8980,20876
8940,20781
8940,20678
8940,20035
9005,19970
9959,19970
9959,19889
9005,19889
8940,19824
8940,19181
8940,19078
8980,18983
9053,18910
9148,18870
9894,18870
9959,18935
9959,17682
9110,17682
8943,17614
8816,17486
8747,17320
8747,17140
8747,15540
8815,15373
8943,15246
9109,15177
9289,15177
10889,15177
11056,15245
11183,15373
11189,15386
11810,15386
11815,15373
11943,15246
12109,15177
12289,15177
13889,15177
14056,15245
14183,15373
14189,15386
14956,15386
14956,10473
14189,10473
14184,10486
14059,10611
14059,12181
14059,13678
14059,13781
14019,13876
13946,13949
13851,13989
13105,13989
13040,13924
13040,12970
13994,12970
14059,13035
14059,13678
14059,12181
14059,12824
13994,12889
13040,12889
13040,11935
13105,11870
13851,11870
13946,11910
14019,11983
14059,12078
14059,12181
14059,10611
14056,10613
13890,10682
13710,10682
12959,10682
12959,11935
12959,12889
12959,12970
12959,13924
12894,13989
12148,13989
12053,13949
11980,13876
11940,13781
11940,13678
11940,13035
12005,12970
12959,12970
12959,12889
12005,12889
11940,12824
11940,12181
11940,12078
11980,11983
12053,11910
12148,11870
12894,11870
12959,11935
12959,10682
12110,10682
11943,10614
11816,10486
11747,10320
11747,10140
11747,8540
11815,8373
11943,8246
12109,8177
12289,8177
13889,8177
14056,8245
14183,8373
14189,8386
16000,8386
16399,8466
16737,8692
16963,9030
17043,9430
17043,6989
11059,6989
11059,8681
11059,10178
11059,12181
11059,13678
11059,13781
11019,13876
10946,13949
10851,13989
10105,13989
10040,13924
10040,12970
10994,12970
11059,13035
11059,13678
11059,12181
11059,12824
10994,12889
10040,12889
10040,11935
10105,11870
10851,11870
10946,11910
11019,11983
11059,12078
11059,12181
11059,10178
11059,10281
11019,10376
10946,10449
10851,10489
10105,10489
10040,10424
10040,9470
10994,9470
11059,9535
11059,10178
11059,8681
11059,9324
10994,9389
10040,9389
10040,8435
10105,8370
10851,8370
10946,8410
11019,8483
11059,8578
11059,8681
11059,6989
9959,6989
9959,8435
9959,9389
9959,9470
9959,10424
9959,11935
9959,12889
9959,12970
9959,13924
9894,13989
9148,13989
9053,13949
8980,13876
8940,13781
8940,13678
8940,13035
9005,12970
9959,12970
9959,12889
9005,12889
8940,12824
8940,12181
8940,12078
8980,11983
9053,11910
9148,11870
9894,11870
9959,11935
9959,10424
9894,10489
9148,10489
9053,10449
8980,10376
8940,10281
8940,10178
8940,9535
9005,9470
9959,9470
9959,9389
9005,9389
8940,9324
8940,8681
8940,8578
8980,8483
9053,8410
9148,8370
9894,8370
9959,8435
9959,6989
7399,6989
7266,7015
7157,7087
7085,7196
7059,7329
7059,42530
7085,42663
7157,42772
7266,42844
7399,42870
17100,42870
17233,42844
17342,42772
17414,42663
17440,42530
17440,7329
" /> 
</g>
<g style="fill:#000000; fill-opacity:0.0; 
stroke:#000000; stroke-width:118.11; stroke-opacity:1; 
stroke-linecap:round; stroke-linejoin:round;">
<polyline fill="none;"
points="17440,7329
17414,7196
17342,7087
17233,7015
17100,6989
17043,6989
17043,9430
17043,16430
17043,23430
17043,30430
17043,37430
16963,37829
16737,38167
16399,38393
16000,38473
14189,38473
14184,38486
14056,38613
14043,38619
14043,39740
14056,39745
14183,39873
14252,40039
14252,40219
14252,41819
14184,41986
14056,42113
13890,42182
13710,42182
12110,42182
11943,42114
11816,41986
11747,41820
11747,41640
11747,40040
11815,39873
11943,39746
11956,39740
11956,38619
11943,38614
11816,38486
11810,38473
11189,38473
11184,38486
11059,38611
11059,40181
11059,41678
11059,41781
11019,41876
10946,41949
10851,41989
10105,41989
10040,41924
10040,40970
10994,40970
11059,41035
11059,41678
11059,40181
11059,40824
10994,40889
10040,40889
10040,39935
10105,39870
10851,39870
10946,39910
11019,39983
11059,40078
11059,40181
11059,38611
11056,38613
10890,38682
10710,38682
9959,38682
9959,39935
9959,40889
9959,40970
9959,41924
9894,41989
9148,41989
9053,41949
8980,41876
8940,41781
8940,41678
8940,41035
9005,40970
9959,40970
9959,40889
9005,40889
8940,40824
8940,40181
8940,40078
8980,39983
9053,39910
9148,39870
9894,39870
9959,39935
9959,38682
9110,38682
8943,38614
8816,38486
8747,38320
8747,38140
8747,36540
8815,36373
8943,36246
9109,36177
9289,36177
10889,36177
11056,36245
11183,36373
11189,36386
11810,36386
11815,36373
11943,36246
12109,36177
12289,36177
13889,36177
14056,36245
14183,36373
14189,36386
14956,36386
14956,31473
14189,31473
14184,31486
14059,31611
14059,33181
14059,34678
14059,34781
14019,34876
13946,34949
13851,34989
13105,34989
13040,34924
13040,33970
13994,33970
14059,34035
14059,34678
14059,33181
14059,33824
13994,33889
13040,33889
13040,32935
13105,32870
13851,32870
13946,32910
14019,32983
14059,33078
14059,33181
14059,31611
14056,31613
13890,31682
13710,31682
12959,31682
12959,32935
12959,33889
12959,33970
12959,34924
12894,34989
12148,34989
12053,34949
11980,34876
11940,34781
11940,34678
11940,34035
12005,33970
12959,33970
12959,33889
12005,33889
11940,33824
11940,33181
11940,33078
11980,32983
12053,32910
12148,32870
12894,32870
12959,32935
12959,31682
12110,31682
11943,31614
11816,31486
11810,31473
11189,31473
11184,31486
11059,31611
11059,33181
11059,34678
11059,34781
11019,34876
10946,34949
10851,34989
10105,34989
10040,34924
10040,33970
10994,33970
11059,34035
11059,34678
11059,33181
11059,33824
10994,33889
10040,33889
10040,32935
10105,32870
10851,32870
10946,32910
11019,32983
11059,33078
11059,33181
11059,31611
11056,31613
10890,31682
10710,31682
9959,31682
9959,32935
9959,33889
9959,33970
9959,34924
9894,34989
9148,34989
9053,34949
8980,34876
8940,34781
8940,34678
8940,34035
9005,33970
9959,33970
9959,33889
9005,33889
8940,33824
8940,33181
8940,33078
8980,32983
9053,32910
9148,32870
9894,32870
9959,32935
9959,31682
9110,31682
8943,31614
8816,31486
8747,31320
8747,31140
8747,29540
8815,29373
8943,29246
9109,29177
9289,29177
10889,29177
11056,29245
11183,29373
11189,29386
11810,29386
11815,29373
11943,29246
12109,29177
12289,29177
13889,29177
14056,29245
14183,29373
14189,29386
14956,29386
14956,24473
14189,24473
14184,24486
14059,24611
14059,26181
14059,27678
14059,27781
14019,27876
13946,27949
13851,27989
13105,27989
13040,27924
13040,26970
13994,26970
14059,27035
14059,27678
14059,26181
14059,26824
13994,26889
13040,26889
13040,25935
13105,25870
13851,25870
13946,25910
14019,25983
14059,26078
14059,26181
14059,24611
14056,24613
13890,24682
13710,24682
12959,24682
12959,25935
12959,26889
12959,26970
12959,27924
12894,27989
12148,27989
12053,27949
11980,27876
11940,27781
11940,27678
11940,27035
12005,26970
12959,26970
12959,26889
12005,26889
11940,26824
11940,26181
11940,26078
11980,25983
12053,25910
12148,25870
12894,25870
12959,25935
12959,24682
12110,24682
11943,24614
11816,24486
11810,24473
11189,24473
11184,24486
11059,24611
11059,26181
11059,27678
11059,27781
11019,27876
10946,27949
10851,27989
10105,27989
10040,27924
10040,26970
10994,26970
11059,27035
11059,27678
11059,26181
11059,26824
10994,26889
10040,26889
10040,25935
10105,25870
10851,25870
10946,25910
11019,25983
11059,26078
11059,26181
11059,24611
11056,24613
10890,24682
10710,24682
9959,24682
9959,25935
9959,26889
9959,26970
9959,27924
9894,27989
9148,27989
9053,27949
8980,27876
8940,27781
8940,27678
8940,27035
9005,26970
9959,26970
9959,26889
9005,26889
8940,26824
8940,26181
8940,26078
8980,25983
9053,25910
9148,25870
9894,25870
9959,25935
9959,24682
9110,24682
8943,24614
8816,24486
8747,24320
8747,24140
8747,22540
8815,22373
8943,22246
9109,22177
9289,22177
10889,22177
11056,22245
11183,22373
11189,22386
11810,22386
11815,22373
11943,22246
12109,22177
12289,22177
13889,22177
14056,22245
14183,22373
14189,22386
14956,22386
14956,17473
14189,17473
14184,17486
14059,17611
14059,19181
14059,20678
14059,20781
14019,20876
13946,20949
13851,20989
13105,20989
13040,20924
13040,19970
13994,19970
14059,20035
14059,20678
14059,19181
14059,19824
13994,19889
13040,19889
13040,18935
13105,18870
13851,18870
13946,18910
14019,18983
14059,19078
14059,19181
14059,17611
14056,17613
13890,17682
13710,17682
12959,17682
12959,18935
12959,19889
12959,19970
12959,20924
12894,20989
12148,20989
12053,20949
11980,20876
11940,20781
11940,20678
11940,20035
12005,19970
12959,19970
12959,19889
12005,19889
11940,19824
11940,19181
11940,19078
11980,18983
12053,18910
12148,18870
12894,18870
12959,18935
12959,17682
12110,17682
11943,17614
11816,17486
11810,17473
11189,17473
11184,17486
11059,17611
11059,19181
11059,20678
11059,20781
11019,20876
10946,20949
10851,20989
10105,20989
10040,20924
10040,19970
10994,19970
11059,20035
11059,20678
11059,19181
11059,19824
10994,19889
10040,19889
10040,18935
10105,18870
10851,18870
10946,18910
11019,18983
11059,19078
11059,19181
11059,17611
11056,17613
10890,17682
10710,17682
9959,17682
9959,18935
9959,19889
9959,19970
9959,20924
9894,20989
9148,20989
9053,20949
8980,20876
8940,20781
8940,20678
8940,20035
9005,19970
9959,19970
9959,19889
9005,19889
8940,19824
8940,19181
8940,19078
8980,18983
9053,18910
9148,18870
9894,18870
9959,18935
9959,17682
9110,17682
8943,17614
8816,17486
8747,17320
8747,17140
8747,15540
8815,15373
8943,15246
9109,15177
9289,15177
10889,15177
11056,15245
11183,15373
11189,15386
11810,15386
11815,15373
11943,15246
12109,15177
12289,15177
13889,15177
14056,15245
14183,15373
14189,15386
14956,15386
14956,10473
14189,10473
14184,10486
14059,10611
14059,12181
14059,13678
14059,13781
14019,13876
13946,13949
13851,13989
13105,13989
13040,13924
13040,12970
13994,12970
14059,13035
14059,13678
14059,12181
14059,12824
13994,12889
13040,12889
13040,11935
13105,11870
13851,11870
13946,11910
14019,11983
14059,12078
14059,12181
14059,10611
14056,10613
13890,10682
13710,10682
12959,10682
12959,11935
12959,12889
12959,12970
12959,13924
12894,13989
12148,13989
12053,13949
11980,13876
11940,13781
11940,13678
11940,13035
12005,12970
12959,12970
12959,12889
12005,12889
11940,12824
11940,12181
11940,12078
11980,11983
12053,11910
12148,11870
12894,11870
12959,11935
12959,10682
12110,10682
11943,10614
11816,10486
11747,10320
11747,10140
11747,8540
11815,8373
11943,8246
12109,8177
12289,8177
13889,8177
14056,8245
14183,8373
14189,8386
16000,8386
16399,8466
16737,8692
16963,9030
17043,9430
17043,6989
11059,6989
11059,8681
11059,10178
11059,12181
11059,13678
11059,13781
11019,13876
10946,13949
10851,13989
10105,13989
10040,13924
10040,12970
10994,12970
11059,13035
11059,13678
11059,12181
11059,12824
10994,12889
10040,12889
10040,11935
10105,11870
10851,11870
10946,11910
11019,11983
11059,12078
11059,12181
11059,10178
11059,10281
11019,10376
10946,10449
10851,10489
10105,10489
10040,10424
10040,9470
10994,9470
11059,9535
11059,10178
11059,8681
11059,9324
10994,9389
10040,9389
10040,8435
10105,8370
10851,8370
10946,8410
11019,8483
11059,8578
11059,8681
11059,6989
9959,6989
9959,8435
9959,9389
9959,9470
9959,10424
9959,11935
9959,12889
9959,12970
9959,13924
9894,13989
9148,13989
9053,13949
8980,13876
8940,13781
8940,13678
8940,13035
9005,12970
9959,12970
9959,12889
9005,12889
8940,12824
8940,12181
8940,12078
8980,11983
9053,11910
9148,11870
9894,11870
9959,11935
9959,10424
9894,10489
9148,10489
9053,10449
8980,10376
8940,10281
8940,10178
8940,9535
9005,9470
9959,9470
9959,9389
9005,9389
8940,9324
8940,8681
8940,8578
8980,8483
9053,8410
9148,8370
9894,8370
9959,8435
9959,6989
7399,6989
7266,7015
7157,7087
7085,7196
7059,7329
7059,42530
7085,42663
7157,42772
7266,42844
7399,42870
17100,42870
17233,42844
17342,42772
17414,42663
17440,42530
17440,7329
" /> 
</g> 
</svg>
