<?xml version="1.0" standalone="no"?>
 <!DOCTYPE svg PUBLIC "-//W3C//DTD SVG 1.1//EN" 
 "http://www.w3.org/Graphics/SVG/1.1/DTD/svg11.dtd"> 
<svg xmlns="http://www.w3.org/2000/svg" version="1.1" 
    width="21.0007cm" height="29.7002cm" viewBox="0 0 82680 116930 ">
<title>SVG Picture created as Power distribution board-F_Mask.svg date 2014/12/06 18:29:39 </title>
  <desc>Picture generated by PCBNEW </desc>
<g style="fill:#000000; fill-opacity:1;stroke:#000000; stroke-opacity:1;
stroke-linecap:round; stroke-linejoin:round; "
 transform="translate(0 0) scale(1 1)">
</g>
<g style="fill:#000000; fill-opacity:0.0; 
stroke:#000000; stroke-width:59.0551; stroke-opacity:1; 
stroke-linecap:round; stroke-linejoin:round;">
</g>
<g style="fill:#000000; fill-opacity:1.0; 
stroke:#000000; stroke-width:59.0551; stroke-opacity:1; 
stroke-linecap:round; stroke-linejoin:round;">
<polyline style="fill-rule:evenodd;"
points="12229,101270
12229,99729
13770,99729
13770,101270
12229,101270
" /> 
<polyline style="fill-rule:evenodd;"
points="12229,76770
12229,75229
13770,75229
13770,76770
12229,76770
" /> 
<polyline style="fill-rule:evenodd;"
points="12229,80270
12229,78729
13770,78729
13770,80270
12229,80270
" /> 
<polyline style="fill-rule:evenodd;"
points="9229,76770
9229,75229
10770,75229
10770,76770
9229,76770
" /> 
<polyline style="fill-rule:evenodd;"
points="12229,83770
12229,82229
13770,82229
13770,83770
12229,83770
" /> 
<polyline style="fill-rule:evenodd;"
points="9229,80270
9229,78729
10770,78729
10770,80270
9229,80270
" /> 
<polyline style="fill-rule:evenodd;"
points="12229,87270
12229,85729
13770,85729
13770,87270
12229,87270
" /> 
<polyline style="fill-rule:evenodd;"
points="9229,87270
9229,85729
10770,85729
10770,87270
9229,87270
" /> 
<polyline style="fill-rule:evenodd;"
points="12229,94270
12229,92729
13770,92729
13770,94270
12229,94270
" /> 
<polyline style="fill-rule:evenodd;"
points="9229,94270
9229,92729
10770,92729
10770,94270
9229,94270
" /> 
<polyline style="fill-rule:evenodd;"
points="9229,108270
9229,106729
10770,106729
10770,108270
9229,108270
" /> 
<polyline style="fill-rule:evenodd;"
points="9229,101270
9229,99729
10770,99729
10770,101270
9229,101270
" /> 
<polyline style="fill-rule:evenodd;"
points="9229,83770
9229,82229
10770,82229
10770,83770
9229,83770
" /> 
<polyline style="fill-rule:evenodd;"
points="12229,90770
12229,89229
13770,89229
13770,90770
12229,90770
" /> 
<polyline style="fill-rule:evenodd;"
points="9229,90770
9229,89229
10770,89229
10770,90770
9229,90770
" /> 
<polyline style="fill-rule:evenodd;"
points="12229,108270
12229,106729
13770,106729
13770,108270
12229,108270
" /> 
<polyline style="fill-rule:evenodd;"
points="12229,97770
12229,96229
13770,96229
13770,97770
12229,97770
" /> 
<polyline style="fill-rule:evenodd;"
points="9229,97770
9229,96229
10770,96229
10770,97770
9229,97770
" /> 
<polyline style="fill-rule:evenodd;"
points="12229,104770
12229,103229
13770,103229
13770,104770
12229,104770
" /> 
<polyline style="fill-rule:evenodd;"
points="9229,104770
9229,103229
10770,103229
10770,104770
9229,104770
" /> 
</g> 
</svg>
