<?xml version="1.0" standalone="no"?>
 <!DOCTYPE svg PUBLIC "-//W3C//DTD SVG 1.1//EN" 
 "http://www.w3.org/Graphics/SVG/1.1/DTD/svg11.dtd"> 
<svg xmlns="http://www.w3.org/2000/svg" version="1.1" 
    width="4.2545cm" height="9.86536cm" viewBox="0 0 16750 38840 ">
<title>SVG Picture created as Power distribution board-F_Mask.svg date 2014/12/06 18:58:12 </title>
  <desc>Picture generated by PCBNEW </desc>
<g style="fill:#000000; fill-opacity:1;stroke:#000000; stroke-opacity:1;
stroke-linecap:round; stroke-linejoin:round; "
 transform="translate(0 0) scale(1 1)">
</g>
<g style="fill:#000000; fill-opacity:0.0; 
stroke:#000000; stroke-width:39.3701; stroke-opacity:1; 
stroke-linecap:round; stroke-linejoin:round;">
</g>
<g style="fill:#000000; fill-opacity:1.0; 
stroke:#000000; stroke-width:39.3701; stroke-opacity:1; 
stroke-linecap:round; stroke-linejoin:round;">
<polyline style="fill-rule:evenodd;"
points="2749,5097
2749,3536
4309,3536
4309,5097
2749,5097
" /> 
<polyline style="fill-rule:evenodd;"
points="5749,29597
5749,28036
7309,28036
7309,29597
5749,29597
" /> 
<polyline style="fill-rule:evenodd;"
points="5749,5097
5749,3536
7309,3536
7309,5097
5749,5097
" /> 
<polyline style="fill-rule:evenodd;"
points="5749,8597
5749,7036
7309,7036
7309,8597
5749,8597
" /> 
<polyline style="fill-rule:evenodd;"
points="5749,12097
5749,10536
7309,10536
7309,12097
5749,12097
" /> 
<polyline style="fill-rule:evenodd;"
points="2749,8597
2749,7036
4309,7036
4309,8597
2749,8597
" /> 
<polyline style="fill-rule:evenodd;"
points="5749,15597
5749,14036
7309,14036
7309,15597
5749,15597
" /> 
<polyline style="fill-rule:evenodd;"
points="2749,15597
2749,14036
4309,14036
4309,15597
2749,15597
" /> 
<polyline style="fill-rule:evenodd;"
points="5749,22597
5749,21036
7309,21036
7309,22597
5749,22597
" /> 
<polyline style="fill-rule:evenodd;"
points="2749,22597
2749,21036
4309,21036
4309,22597
2749,22597
" /> 
<polyline style="fill-rule:evenodd;"
points="2749,36597
2749,35036
4309,35036
4309,36597
2749,36597
" /> 
<polyline style="fill-rule:evenodd;"
points="2749,29597
2749,28036
4309,28036
4309,29597
2749,29597
" /> 
<polyline style="fill-rule:evenodd;"
points="2749,12097
2749,10536
4309,10536
4309,12097
2749,12097
" /> 
<polyline style="fill-rule:evenodd;"
points="5749,19097
5749,17536
7309,17536
7309,19097
5749,19097
" /> 
<polyline style="fill-rule:evenodd;"
points="2749,19097
2749,17536
4309,17536
4309,19097
2749,19097
" /> 
<polyline style="fill-rule:evenodd;"
points="5749,36597
5749,35036
7309,35036
7309,36597
5749,36597
" /> 
<polyline style="fill-rule:evenodd;"
points="5749,26097
5749,24536
7309,24536
7309,26097
5749,26097
" /> 
<polyline style="fill-rule:evenodd;"
points="2749,26097
2749,24536
4309,24536
4309,26097
2749,26097
" /> 
<polyline style="fill-rule:evenodd;"
points="5749,33097
5749,31536
7309,31536
7309,33097
5749,33097
" /> 
<polyline style="fill-rule:evenodd;"
points="2749,33097
2749,31536
4309,31536
4309,33097
2749,33097
" /> 
</g> 
</svg>
