<?xml version="1.0" standalone="no"?>
 <!DOCTYPE svg PUBLIC "-//W3C//DTD SVG 1.1//EN" 
 "http://www.w3.org/Graphics/SVG/1.1/DTD/svg11.dtd"> 
<svg xmlns="http://www.w3.org/2000/svg" version="1.1" 
    width="4.2545cm" height="9.86536cm" viewBox="0 0 16750 38840 ">
<title>SVG Picture created as Power distribution board-Dwgs_User.svg date 2014/12/06 18:34:14 </title>
  <desc>Picture generated by PCBNEW </desc>
<g style="fill:#000000; fill-opacity:1;stroke:#000000; stroke-opacity:1;
stroke-linecap:round; stroke-linejoin:round; "
 transform="translate(0 0) scale(1 1)">
</g>
<g style="fill:#000000; fill-opacity:0.0; 
stroke:#000000; stroke-width:98.4252; stroke-opacity:1; 
stroke-linecap:round; stroke-linejoin:round;">
<path d="M15286 34541
L15023 34541
" />
<path d="M15436 34447
L15154 34353
L15154 34597
" />
<path d="M15042 34766
L15023 34766
L14986 34747
L14967 34728
" />
<path d="M15417 35009
L15417 35047
L15398 35084
L15379 35103
L15342 35122
L15267 35141
L15173 35141
L15098 35122
L15061 35103
L15042 35084
L15023 35047
L15023 35009
L15042 34972
L15061 34953
L15098 34934
L15173 34916
L15267 34916
L15342 34934
L15379 34953
L15398 34972
L15417 35009
" />
<path d="M15417 35384
L15417 35422
L15398 35459
L15379 35478
L15342 35497
L15267 35516
L15173 35516
L15098 35497
L15061 35478
L15042 35459
L15023 35422
L15023 35384
L15042 35347
L15061 35328
L15098 35309
L15173 35291
L15267 35291
L15342 35309
L15379 35328
L15398 35347
L15417 35384
" />
<path d="M15417 35759
L15417 35797
L15398 35834
L15379 35853
L15342 35872
L15267 35890
L15173 35890
L15098 35872
L15061 35853
L15042 35834
L15023 35797
L15023 35759
L15042 35722
L15061 35703
L15098 35684
L15173 35666
L15267 35666
L15342 35684
L15379 35703
L15398 35722
L15417 35759
" />
<path d="M15023 36359
L15286 36359
" />
<path d="M15248 36359
L15267 36378
L15286 36415
L15286 36472
L15267 36509
L15229 36528
L15023 36528
" />
<path d="M15229 36528
L15267 36547
L15286 36584
L15286 36640
L15267 36678
L15229 36697
L15023 36697
" />
<path d="M15023 36884
L15286 36884
" />
<path d="M15248 36884
L15267 36903
L15286 36940
L15286 36997
L15267 37034
L15229 37053
L15023 37053
" />
<path d="M15229 37053
L15267 37072
L15286 37109
L15286 37165
L15267 37203
L15229 37222
L15023 37222
" />
<path d="M14789 35009
L14789 36584
" />
<path d="M7309 35009
L15576 35009
" />
<path d="M7309 36584
L15576 36584
" />
<path d="M14789 36584
L14558 36141
" />
<path d="M14789 36584
L15020 36141
" />
<path d="M14789 35009
L14558 35453
" />
<path d="M14789 35009
L15020 35453
" />
<path d="M12763 18723
L12763 18798
L12782 18835
L12801 18854
L12857 18892
L12932 18910
L13082 18910
L13120 18892
L13138 18873
L13157 18835
L13157 18760
L13138 18723
L13120 18704
L13082 18685
L12988 18685
L12951 18704
L12932 18723
L12913 18760
L12913 18835
L12932 18873
L12951 18892
L12988 18910
" />
<path d="M13157 19042
L13157 19285
L13007 19154
L13007 19210
L12988 19248
L12970 19267
L12932 19285
L12838 19285
L12801 19267
L12782 19248
L12763 19210
L12763 19098
L12782 19060
L12801 19042
" />
<path d="M12782 19473
L12763 19473
L12726 19454
L12707 19435
" />
<path d="M12763 19660
L12763 19735
L12782 19773
L12801 19791
L12857 19829
L12932 19848
L13082 19848
L13120 19829
L13138 19810
L13157 19773
L13157 19698
L13138 19660
L13120 19642
L13082 19623
L12988 19623
L12951 19642
L12932 19660
L12913 19698
L12913 19773
L12932 19810
L12951 19829
L12988 19848
" />
<path d="M12988 20073
L13007 20035
L13026 20016
L13063 19998
L13082 19998
L13120 20016
L13138 20035
L13157 20073
L13157 20148
L13138 20185
L13120 20204
L13082 20223
L13063 20223
L13026 20204
L13007 20185
L12988 20148
L12988 20073
L12970 20035
L12951 20016
L12913 19998
L12838 19998
L12801 20016
L12782 20035
L12763 20073
L12763 20148
L12782 20185
L12801 20204
L12838 20223
L12913 20223
L12951 20204
L12970 20185
L12988 20148
" />
<path d="M13157 20466
L13157 20504
L13138 20541
L13120 20560
L13082 20579
L13007 20598
L12913 20598
L12838 20579
L12801 20560
L12782 20541
L12763 20504
L12763 20466
L12782 20429
L12801 20410
L12838 20391
L12913 20373
L13007 20373
L13082 20391
L13120 20410
L13138 20429
L13157 20466
" />
<path d="M12763 21066
L13026 21066
" />
<path d="M12988 21066
L13007 21085
L13026 21123
L13026 21179
L13007 21216
L12970 21235
L12763 21235
" />
<path d="M12970 21235
L13007 21254
L13026 21291
L13026 21348
L13007 21385
L12970 21404
L12763 21404
" />
<path d="M12763 21591
L13026 21591
" />
<path d="M12988 21591
L13007 21610
L13026 21648
L13026 21704
L13007 21741
L12970 21760
L12763 21760
" />
<path d="M12970 21760
L13007 21779
L13026 21816
L13026 21872
L13007 21910
L12970 21929
L12763 21929
" />
<path d="M12529 1816
L12529 38816
" />
<path d="M11529 1816
L13316 1816
" />
<path d="M11529 38816
L13316 38816
" />
<path d="M12529 38816
L12298 38373
" />
<path d="M12529 38816
L12760 38373
" />
<path d="M12529 1816
L12298 2260
" />
<path d="M12529 1816
L12760 2260
" />
<path d="M4148 226
L4167 207
L4204 188
L4298 188
L4335 207
L4354 226
L4373 263
L4373 301
L4354 357
L4129 582
L4373 582
" />
<path d="M4560 582
L4635 582
L4673 563
L4692 545
L4729 488
L4748 413
L4748 263
L4729 226
L4710 207
L4673 188
L4598 188
L4560 207
L4542 226
L4523 263
L4523 357
L4542 395
L4560 413
L4598 432
L4673 432
L4710 413
L4729 395
L4748 357
" />
<path d="M4935 563
L4935 582
L4917 620
L4898 638
" />
<path d="M5085 226
L5104 207
L5142 188
L5235 188
L5273 207
L5292 226
L5310 263
L5310 301
L5292 357
L5067 582
L5310 582
" />
<path d="M5685 582
L5460 582
" />
<path d="M5573 582
L5573 188
L5535 245
L5498 282
L5460 301
" />
<path d="M5929 188
L5967 188
L6004 207
L6023 226
L6041 263
L6060 338
L6060 432
L6041 507
L6023 545
L6004 563
L5967 582
L5929 582
L5892 563
L5873 545
L5854 507
L5835 432
L5835 338
L5854 263
L5873 226
L5892 207
L5929 188
" />
<path d="M6529 582
L6529 320
" />
<path d="M6529 357
L6548 338
L6585 320
L6641 320
L6679 338
L6698 376
L6698 582
" />
<path d="M6698 376
L6716 338
L6754 320
L6810 320
L6848 338
L6866 376
L6866 582
" />
<path d="M7054 582
L7054 320
" />
<path d="M7054 357
L7073 338
L7110 320
L7166 320
L7204 338
L7223 376
L7223 582
" />
<path d="M7223 376
L7241 338
L7279 320
L7335 320
L7373 338
L7391 376
L7391 582
" />
<path d="M11529 816
L29 816
" />
<path d="M11529 2316
L11529 29
" />
<path d="M29 2316
L29 29
" />
<path d="M29 816
L473 586
" />
<path d="M29 816
L473 1047
" />
<path d="M11529 816
L11086 586
" />
<path d="M11529 816
L11086 1047
" />
</g> 
</svg>
