<?xml version="1.0" standalone="no"?>
 <!DOCTYPE svg PUBLIC "-//W3C//DTD SVG 1.1//EN" 
 "http://www.w3.org/Graphics/SVG/1.1/DTD/svg11.dtd"> 
<svg xmlns="http://www.w3.org/2000/svg" version="1.1" 
    width="21.0007cm" height="29.7002cm" viewBox="0 0 82680 116930 ">
<title>SVG Picture created as Power distribution board-F_Paste.svg date 2014/12/06 16:52:20 </title>
  <desc>Picture generated by PCBNEW </desc>
<g style="fill:#000000; fill-opacity:1;stroke:#000000; stroke-opacity:1;
stroke-linecap:round; stroke-linejoin:round; "
 transform="translate(0 0) scale(1 1)">
</g>
<g style="fill:#000000; fill-opacity:0.0; 
stroke:#000000; stroke-width:59.0551; stroke-opacity:1; 
stroke-linecap:round; stroke-linejoin:round;">
</g>
<g style="fill:#000000; fill-opacity:1.0; 
stroke:#000000; stroke-width:59.0551; stroke-opacity:1; 
stroke-linecap:round; stroke-linejoin:round;">
<polyline style="fill-rule:evenodd;"
points="12229,15659
12229,17200
13770,17200
13770,15659
12229,15659
" /> 
<polyline style="fill-rule:evenodd;"
points="12229,40159
12229,41700
13770,41700
13770,40159
12229,40159
" /> 
<polyline style="fill-rule:evenodd;"
points="12229,36659
12229,38200
13770,38200
13770,36659
12229,36659
" /> 
<polyline style="fill-rule:evenodd;"
points="9229,40159
9229,41700
10770,41700
10770,40159
9229,40159
" /> 
<polyline style="fill-rule:evenodd;"
points="12229,33159
12229,34700
13770,34700
13770,33159
12229,33159
" /> 
<polyline style="fill-rule:evenodd;"
points="9229,36659
9229,38200
10770,38200
10770,36659
9229,36659
" /> 
<polyline style="fill-rule:evenodd;"
points="12229,29659
12229,31200
13770,31200
13770,29659
12229,29659
" /> 
<polyline style="fill-rule:evenodd;"
points="9229,29659
9229,31200
10770,31200
10770,29659
9229,29659
" /> 
<polyline style="fill-rule:evenodd;"
points="12229,22659
12229,24200
13770,24200
13770,22659
12229,22659
" /> 
<polyline style="fill-rule:evenodd;"
points="9229,22659
9229,24200
10770,24200
10770,22659
9229,22659
" /> 
<polyline style="fill-rule:evenodd;"
points="9229,8659
9229,10200
10770,10200
10770,8659
9229,8659
" /> 
<polyline style="fill-rule:evenodd;"
points="9229,15659
9229,17200
10770,17200
10770,15659
9229,15659
" /> 
<polyline style="fill-rule:evenodd;"
points="9229,33159
9229,34700
10770,34700
10770,33159
9229,33159
" /> 
<polyline style="fill-rule:evenodd;"
points="12229,26159
12229,27700
13770,27700
13770,26159
12229,26159
" /> 
<polyline style="fill-rule:evenodd;"
points="9229,26159
9229,27700
10770,27700
10770,26159
9229,26159
" /> 
<polyline style="fill-rule:evenodd;"
points="12229,8659
12229,10200
13770,10200
13770,8659
12229,8659
" /> 
<polyline style="fill-rule:evenodd;"
points="12229,19159
12229,20700
13770,20700
13770,19159
12229,19159
" /> 
<polyline style="fill-rule:evenodd;"
points="9229,19159
9229,20700
10770,20700
10770,19159
9229,19159
" /> 
<polyline style="fill-rule:evenodd;"
points="12229,12159
12229,13700
13770,13700
13770,12159
12229,12159
" /> 
<polyline style="fill-rule:evenodd;"
points="9229,12159
9229,13700
10770,13700
10770,12159
9229,12159
" /> 
</g> 
</svg>
