<?xml version="1.0" standalone="no"?>
 <!DOCTYPE svg PUBLIC "-//W3C//DTD SVG 1.1//EN" 
 "http://www.w3.org/Graphics/SVG/1.1/DTD/svg11.dtd"> 
<svg xmlns="http://www.w3.org/2000/svg" version="1.1" 
    width="21.0007cm" height="29.7002cm" viewBox="0 0 82680 116930 ">
<title>SVG Picture created as Power distribution board-Dwgs_User.svg date 2014/12/06 18:29:39 </title>
  <desc>Picture generated by PCBNEW </desc>
<g style="fill:#000000; fill-opacity:1;stroke:#000000; stroke-opacity:1;
stroke-linecap:round; stroke-linejoin:round; "
 transform="translate(0 0) scale(1 1)">
</g>
<g style="fill:#000000; fill-opacity:0.0; 
stroke:#000000; stroke-width:98.4252; stroke-opacity:1; 
stroke-linecap:round; stroke-linejoin:round;">
<path d="M21756 106224
L21494 106224
" />
<path d="M21906 106130
L21625 106036
L21625 106280
" />
<path d="M21512 106449
L21494 106449
L21456 106430
L21437 106411
" />
<path d="M21887 106692
L21887 106730
L21869 106767
L21850 106786
L21812 106805
L21737 106824
L21644 106824
L21569 106805
L21531 106786
L21512 106767
L21494 106730
L21494 106692
L21512 106655
L21531 106636
L21569 106617
L21644 106599
L21737 106599
L21812 106617
L21850 106636
L21869 106655
L21887 106692
" />
<path d="M21887 107067
L21887 107105
L21869 107142
L21850 107161
L21812 107180
L21737 107199
L21644 107199
L21569 107180
L21531 107161
L21512 107142
L21494 107105
L21494 107067
L21512 107030
L21531 107011
L21569 106992
L21644 106974
L21737 106974
L21812 106992
L21850 107011
L21869 107030
L21887 107067
" />
<path d="M21887 107442
L21887 107480
L21869 107517
L21850 107536
L21812 107555
L21737 107574
L21644 107574
L21569 107555
L21531 107536
L21512 107517
L21494 107480
L21494 107442
L21512 107405
L21531 107386
L21569 107367
L21644 107349
L21737 107349
L21812 107367
L21850 107386
L21869 107405
L21887 107442
" />
<path d="M21494 108042
L21756 108042
" />
<path d="M21719 108042
L21737 108061
L21756 108098
L21756 108155
L21737 108192
L21700 108211
L21494 108211
" />
<path d="M21700 108211
L21737 108230
L21756 108267
L21756 108323
L21737 108361
L21700 108380
L21494 108380
" />
<path d="M21494 108567
L21756 108567
" />
<path d="M21719 108567
L21737 108586
L21756 108623
L21756 108680
L21737 108717
L21700 108736
L21494 108736
" />
<path d="M21700 108736
L21737 108755
L21756 108792
L21756 108848
L21737 108886
L21700 108905
L21494 108905
" />
<path d="M21259 106692
L21259 108267
" />
<path d="M13779 106692
L22047 106692
" />
<path d="M13779 108267
L22047 108267
" />
<path d="M21259 108267
L21028 107824
" />
<path d="M21259 108267
L21490 107824
" />
<path d="M21259 106692
L21028 107136
" />
<path d="M21259 106692
L21490 107136
" />
<path d="M19234 90406
L19234 90481
L19253 90518
L19271 90537
L19328 90575
L19403 90593
L19553 90593
L19590 90575
L19609 90556
L19628 90518
L19628 90443
L19609 90406
L19590 90387
L19553 90368
L19459 90368
L19421 90387
L19403 90406
L19384 90443
L19384 90518
L19403 90556
L19421 90575
L19459 90593
" />
<path d="M19628 90725
L19628 90968
L19478 90837
L19478 90893
L19459 90931
L19440 90950
L19403 90968
L19309 90968
L19271 90950
L19253 90931
L19234 90893
L19234 90781
L19253 90743
L19271 90725
" />
<path d="M19253 91156
L19234 91156
L19196 91137
L19178 91118
" />
<path d="M19234 91343
L19234 91418
L19253 91456
L19271 91475
L19328 91512
L19403 91531
L19553 91531
L19590 91512
L19609 91493
L19628 91456
L19628 91381
L19609 91343
L19590 91325
L19553 91306
L19459 91306
L19421 91325
L19403 91343
L19384 91381
L19384 91456
L19403 91493
L19421 91512
L19459 91531
" />
<path d="M19459 91756
L19478 91718
L19496 91700
L19534 91681
L19553 91681
L19590 91700
L19609 91718
L19628 91756
L19628 91831
L19609 91868
L19590 91887
L19553 91906
L19534 91906
L19496 91887
L19478 91868
L19459 91831
L19459 91756
L19440 91718
L19421 91700
L19384 91681
L19309 91681
L19271 91700
L19253 91718
L19234 91756
L19234 91831
L19253 91868
L19271 91887
L19309 91906
L19384 91906
L19421 91887
L19440 91868
L19459 91831
" />
<path d="M19628 92149
L19628 92187
L19609 92224
L19590 92243
L19553 92262
L19478 92281
L19384 92281
L19309 92262
L19271 92243
L19253 92224
L19234 92187
L19234 92149
L19253 92112
L19271 92093
L19309 92074
L19384 92056
L19478 92056
L19553 92074
L19590 92093
L19609 92112
L19628 92149
" />
<path d="M19234 92749
L19496 92749
" />
<path d="M19459 92749
L19478 92768
L19496 92806
L19496 92862
L19478 92899
L19440 92918
L19234 92918
" />
<path d="M19440 92918
L19478 92937
L19496 92974
L19496 93031
L19478 93068
L19440 93087
L19234 93087
" />
<path d="M19234 93274
L19496 93274
" />
<path d="M19459 93274
L19478 93293
L19496 93331
L19496 93387
L19478 93424
L19440 93443
L19234 93443
" />
<path d="M19440 93443
L19478 93462
L19496 93499
L19496 93556
L19478 93593
L19440 93612
L19234 93612
" />
<path d="M18999 73500
L18999 110500
" />
<path d="M18000 73500
L19787 73500
" />
<path d="M18000 110500
L19787 110500
" />
<path d="M18999 110500
L18769 110056
" />
<path d="M18999 110500
L19230 110056
" />
<path d="M18999 73500
L18769 73943
" />
<path d="M18999 73500
L19230 73943
" />
<path d="M10618 71909
L10637 71890
L10675 71871
L10768 71871
L10806 71890
L10825 71909
L10843 71946
L10843 71984
L10825 72040
L10600 72265
L10843 72265
" />
<path d="M11031 72265
L11106 72265
L11143 72246
L11162 72228
L11200 72171
L11218 72096
L11218 71946
L11200 71909
L11181 71890
L11143 71871
L11068 71871
L11031 71890
L11012 71909
L10993 71946
L10993 72040
L11012 72078
L11031 72096
L11068 72115
L11143 72115
L11181 72096
L11200 72078
L11218 72040
" />
<path d="M11406 72246
L11406 72265
L11387 72303
L11368 72321
" />
<path d="M11556 71909
L11575 71890
L11612 71871
L11706 71871
L11743 71890
L11762 71909
L11781 71946
L11781 71984
L11762 72040
L11537 72265
L11781 72265
" />
<path d="M12156 72265
L11931 72265
" />
<path d="M12043 72265
L12043 71871
L12006 71928
L11968 71965
L11931 71984
" />
<path d="M12399 71871
L12437 71871
L12474 71890
L12493 71909
L12512 71946
L12531 72021
L12531 72115
L12512 72190
L12493 72228
L12474 72246
L12437 72265
L12399 72265
L12362 72246
L12343 72228
L12324 72190
L12306 72115
L12306 72021
L12324 71946
L12343 71909
L12362 71890
L12399 71871
" />
<path d="M12999 72265
L12999 72003
" />
<path d="M12999 72040
L13018 72021
L13056 72003
L13112 72003
L13149 72021
L13168 72059
L13168 72265
" />
<path d="M13168 72059
L13187 72021
L13224 72003
L13281 72003
L13318 72021
L13337 72059
L13337 72265
" />
<path d="M13524 72265
L13524 72003
" />
<path d="M13524 72040
L13543 72021
L13581 72003
L13637 72003
L13674 72021
L13693 72059
L13693 72265
" />
<path d="M13693 72059
L13712 72021
L13749 72003
L13806 72003
L13843 72021
L13862 72059
L13862 72265
" />
<path d="M18000 72500
L6500 72500
" />
<path d="M18000 74000
L18000 71712
" />
<path d="M6500 74000
L6500 71712
" />
<path d="M6500 72500
L6943 72269
" />
<path d="M6500 72500
L6943 72730
" />
<path d="M18000 72500
L17556 72269
" />
<path d="M18000 72500
L17556 72730
" />
</g> 
</svg>
