<?xml version="1.0" standalone="no"?>
 <!DOCTYPE svg PUBLIC "-//W3C//DTD SVG 1.1//EN" 
 "http://www.w3.org/Graphics/SVG/1.1/DTD/svg11.dtd"> 
<svg xmlns="http://www.w3.org/2000/svg" version="1.1" 
    width="4.2545cm" height="9.86536cm" viewBox="0 0 16750 38840 ">
<title>SVG Picture created as Power distribution board-Edge_Cuts.svg date 2014/12/06 18:35:45 </title>
  <desc>Picture generated by PCBNEW </desc>
<g style="fill:#000000; fill-opacity:1;stroke:#000000; stroke-opacity:1;
stroke-linecap:round; stroke-linejoin:round; "
 transform="translate(0 0) scale(1 1)">
</g>
<g style="fill:#000000; fill-opacity:0.0; 
stroke:#000000; stroke-width:59.0551; stroke-opacity:1; 
stroke-linecap:round; stroke-linejoin:round;">
<path d="M1029 1816
L11029 1816
" />
<path d="M29 38316
L29 2316
" />
<path d="M11029 38816
L529 38816
" />
<path d="M11529 38316
L11529 36816
" />
<path d="M11529 2316
L11529 38316
" />
<path d="M29.528 38316.9 A500 500 0.0 0 0 529.528 38816.9 " />
<path d="M11029.5 38816.9 A500 500 0.0 0 0 11529.5 38316.9 " />
<path d="M11529.5 2316.93 A500 500 0.0 0 0 11029.5 1816.93 " />
<path d="M529.528 1816.93 A500 500 0.0 0 0 29.528 2316.93 " />
</g> 
</svg>
